/* XPM */
static char *_1615d7657f0468daeec2d172e17b06cFZHbhtovlJ4hrsyW[] = {
/* columns rows colors chars-per-pixel */
"64 64 157 2 ",
"   c #1C1C45",
".  c #1E1E4B",
"X  c #1E1F50",
"o  c #201F4C",
"O  c #1F204C",
"+  c #1F2151",
"@  c #21214E",
"#  c #242453",
"$  c #282656",
"%  c #272856",
"&  c #292956",
"*  c #272759",
"=  c #29275A",
"-  c #272959",
";  c #2A2A5C",
":  c #302D5F",
">  c #2D305F",
",  c #2E2E62",
"<  c #312F65",
"1  c #322F69",
"2  c #2E3264",
"3  c #2F3568",
"4  c #313166",
"5  c #34336B",
"6  c #38366E",
"7  c #34396D",
"8  c #38386E",
"9  c #363670",
"0  c #383671",
"q  c #363D72",
"w  c #3A3B74",
"e  c #3B3E79",
"r  c #374075",
"t  c #3A4176",
"y  c #374078",
"u  c #3C437C",
"i  c #3E497F",
"p  c #40447E",
"a  c #3E4681",
"s  c #3F4A82",
"d  c #414781",
"f  c #414782",
"g  c #424782",
"h  c #404581",
"j  c #414682",
"k  c #414B81",
"l  c #414883",
"z  c #434A82",
"x  c #414984",
"c  c #424984",
"v  c #424A85",
"b  c #424A86",
"n  c #434B86",
"m  c #434B87",
"M  c #414D86",
"N  c #414D87",
"B  c #424A84",
"V  c #434C89",
"C  c #414E89",
"Z  c #434F89",
"A  c #414E8A",
"S  c #434E8A",
"D  c #434F8A",
"F  c #454D89",
"G  c #444D8A",
"H  c #454E8A",
"J  c #454F8C",
"K  c #444F8D",
"L  c #464F8D",
"P  c #444E8A",
"I  c #475085",
"U  c #485187",
"Y  c #42508B",
"T  c #43508B",
"R  c #43518C",
"E  c #44508C",
"W  c #45508C",
"Q  c #44518C",
"!  c #44518D",
"~  c #46538D",
"^  c #46528F",
"/  c #47538F",
"(  c #45548F",
")  c #47548F",
"_  c #46528D",
"`  c #48508D",
"'  c #48548F",
"]  c #4B548F",
"[  c #49538E",
"{  c #4C588F",
"}  c #475590",
"|  c #475591",
" . c #465491",
".. c #485290",
"X. c #495193",
"o. c #4A5392",
"O. c #495490",
"+. c #4B5490",
"@. c #4A5590",
"#. c #4A5591",
"$. c #485492",
"%. c #485592",
"&. c #485593",
"*. c #485692",
"=. c #4A5693",
"-. c #4B5693",
";. c #4C5691",
":. c #4D5692",
">. c #4A5694",
",. c #4A5592",
"<. c #495993",
"1. c #4A5996",
"2. c #4F5996",
"3. c #4D5C97",
"4. c #4D5995",
"5. c #4B5898",
"6. c #4D5998",
"7. c #4B5C9B",
"8. c #4E5C99",
"9. c #4C5C9A",
"0. c #4E5E9A",
"q. c #4F5E9D",
"w. c #4E5C99",
"e. c #505B94",
"r. c #515D9B",
"t. c #4F619A",
"y. c #52619D",
"u. c #515EA1",
"i. c #5262A1",
"p. c #5261A3",
"a. c #5465A1",
"s. c #5764A1",
"d. c #5464A2",
"f. c #5665A2",
"g. c #5566A2",
"h. c #5767A3",
"j. c #5566A4",
"k. c #5566A5",
"l. c #5567A4",
"z. c #5767A5",
"x. c #5564A2",
"c. c #5966A6",
"v. c #576AA7",
"b. c #5A6AA6",
"n. c #5767A8",
"m. c #5B67AA",
"M. c #576CA8",
"N. c #5B6BAB",
"B. c #5B6AAC",
"V. c #5C6CAA",
"C. c #5F70AC",
"Z. c #5F6FB0",
"A. c #5F70B3",
"S. c #616CAA",
"D. c #6171AC",
"F. c #606FB5",
"G. c #6171B2",
/* pixels */
"# 3.1.T @.l.l.d.l.7.t @ B.R V w.l.i.T ~ | ; r d.~ l.l.| L ~ ~ @.  q.5.L @.d.d.d.d.w.y * N.V V w.l.i.T ~ | ; t i.~ d.d.@.~ ~ ~ :.",
"# @.L u t o.k ` o.F q # d.u u V o.~ q i h ; q <.q @.~ h h h i t   <.F t t ( k ~ ( V 7 * d.a a V ' V q i h ; y @.w @.' s a a i u ",
"# v e ; @ 5   < 5 5 , # @.5 5 5 5 , . 5 5 * 7 u   5 5 5 5 5 < o o s w = # 5 . 5 5 5 , * @.1 5 5 5 , . 5 5 * 7 t   5 5 5 5 5 , @ ",
"# v u 5 4 5 @ 5 5 5 < # @.5 5 ; ; 5 4 5 5 * 5 v 4 5 # 5 5 5 5 5 o M w 5 5 5 O 5 5 5 , * >.5 5 ; ; 5 4 5 5 * 7 v 4 5 # 5 5 5 5 5 ",
"# v e 5 5 5 # 5 5 5 < # :.5 5 ; ; 5 5 5 5 * 7 v 4 5 # 4 5 5 5 6 . M w 4 5 5 # 5 5 5 , * >.5 5 ; ; 5 5 4 5 * 7 v < 5 # 5 5 5 5 0 ",
"# F 5 O * 0 0 # < 5 < * 2.5 * , , # 0 . 5 * q k O @ 8 5 5 < # 0 o ~ 2 @ * 8 0 @ 4 5 , * w.0 # 2 , * 0 . 5 * q a . # 8 5 5 , # w ",
"% 2 ; @ * ; ; # ; ; ; # 7 ; * - ; # ; # ; # ; 2 # # ; ; ; ; # ; @ 2 - # * ; ; # ; ; ; # 5 ; # % % # ; # ; # ; 2 # # ; ; ; * # 4 ",
"# . O O @ # . O @ . . . . . O # # . o @ . . . O # @ # . . O . . . . O O @ # . @ o . . . . . O @ @ . O @ . . . . @ O # . . . . # ",
"D.1.' @.k . D.>.o.y.V.V.b.V.w.4 q b.` ` b.V.y...| 2.. w.y.3.N.N.V.>.' @.k + G.@.' y.N.B.N.N.7.4 r B.~ ` b.N.r.o.$.2.. r.r.e.V.Z.",
"Q i p h w . a.s y s Q s ~ ~ c , 7 w.u u ~ o.v w a k . ~ M u | ~ s p a h w + i.a y s ~ s ` o.s , 7 w.i i ~ o.a y i h . ( v u o.>.",
"@ < 5 5 < o @.5 # - , @ 5 4 5 ; 2 V 1 5 5 5 ; # 7 5 @ s 3 # 5 5   5 5 5 , # @.5 # ; , @ 5 5 5 = 5 F < 5 5 5 - # 5 5 @ k 2 * 5 6 ",
"8 * < 6 4 o @.9 5 5 4 # 5 5 5 ; 2 T 5 9 * 4 5 5 5 9 @ s t 4 5 # 5 * < 5 4 # @.5 5 5 , # 9 5 5 ; 5 L 5 9 * 4 5 5 5 5 @ k w 5 5 ; ",
"8 # : 6 4 o @.5 5 5 4 * 4 5 5 ; 2 T 5 5 * , 5 5 4 9 @ s t 4 4 # 5 # , 5 4 # :.5 5 5 < * 5 5 5 ; 5 L 5 5 # , 5 5 5 5 @ v e 4 , ; ",
"% @ < 6 4 o w.* # ; 0 5 @ 5 5 ; 5 ~ 5 . 5 ; ; 4 @ 0 @ v 7 O # w @ # 4 5 5 # e.@ @ ; 0 5 . 6 5 * 5 L 5 . 8 * ; 4 # 0 O n 5 @ * e ",
"; # & ; ; # 7 # # $ ; ; # ; ; * ; 2 ; # ; * * ; # , # 2 ; # * , # # ; ; ; # 7 # # * ; ; # ; ; * ; 5 ; # ; * % ; # ; # 4 ; # # 4 ",
"; . @ @ O . . . . o @ # . @ @ O . . @ @ o # @ . @ . . . @ @ @ O # O . o o . . . . O @ # . O O O     O + O # @ . @ . . . O @ @ # ",
"# e.r.` 2.V.B.B.B.i.u * S.` ` y.N.l.` ` :.2 t c.` B.B.-.' ' @.e.  y.e.` :.V.N.N.N.y.u % F.` ` y.V.c.` ] :.; p l.' S.S.:.` ` ` 2.",
"# ' L u i @.s ~ @.F 0 # a.h h F ' ~ w h v ; q -.q -.o.l a a a u . @.L u u ' s ` ' F 7 * a.a a F @.L q a v - y <.y :.` k p p i u ",
"# s e ; @ 5   5 5 5 , # @.5 5 5 5 ,   5 5 * 7 i   5 5 5 5 5 < . @ v w - @ 5 . 5 4 5 , # o.4 5 5 5 ,   5 5 * 7 t . 5 5 5 5 5 , @ ",
"# v e 5 5 5 O 7 5 5 2 # @.5 5 ; ; 5 4 5 5 % 7 c < 9 # 4 5 5 5 5 . M e 5 5 5 O 5 5 5 < # :.5 6 ; ; 5 4 5 5 * 7 k 4 5 # 5 5 5 5 5 ",
"# v e 5 7 5 # 5 5 5 2 # @.5 5 ; ; 5 5 4 5 % 7 m 5 5 # < 5 5 5 5 . V w 5 5 5 # 5 5 5 , # :.5 5 ; ; 5 5 4 5 * 7 v 4 5 # 5 5 5 5 0 ",
"# F 4 @ * 0 0 # 2 5 2 # 2.5 # 2 2 # 0 . 5 & q k O @ 5 6 5 , # 0 . R 4 @ $ 0 w @ 4 9 , % 2.5 # 4 < # 8 O 5 * q i . + q 5 9 , # w ",
"& 2 - # * ; ; # - ; - # 7 ; # ; - # , # ; # ; 2 @ # ; ; ; - # ; @ 2 ; @ * ; ; # = ; * # 5 ; # = = # ; @ ; # ; 2 # # ; ; ; * # 4 ",
"# . @ @ @ # . @ . . . . . . . @ @ @ . @ . . . . @ @ # @ O @ . . . . O O @ # O O O O . . . . O # @ . @ @ O O O O O O # @ O . . @ ",
"D.1.( @.v . D.@.( r.V.N.N.V.2.4 7 b.~ ~ l.N.y.| | w.. 4.r.2.V.b.V.@.( @.s O D.@.` y.b.b.b.N.3.2 q m.` ` b.N.y.@.@.2.. r.r.3.N.V.",
"U a a h e . l.s r k ~ v ` ` v , 7 w.u a ~ ` k r a v . ( M i ' ' M i i s w O a.a y v Q M ( ` v , 7 w.u u ~ ( k t s v . o.M i ` :.",
"@ < 5 5 4 O o.7 # ; , o 5 4 5 - 2 v 5 5 5 5 - # 5 5 @ a 4 # 5 5   4 5 5 , @ @.5 # ; ; @ 5 5 5 = 2 V < 5 5 5 $ # 5 7 O k 2 # 5 7 ",
"7 * , 5 5 O :.9 5 5 , # 5 5 5 - 2 F 5 9 * 4 5 5 5 5 @ h t 5 5 @ 5 % 2 5 4 O @.5 5 5 , # 5 5 5 = 2 V 5 0 * 4 5 5 5 5 O k w 5 5 & ",
"7 # , 5 5 O :.5 5 5 4 * 5 5 5 - 4 F 5 5 * , 5 5 4 5 @ h t 5 4 # 5 # < 6 4 O <.4 5 7 < * 5 5 5 = 2 V 5 5 * , 5 5 5 5 O k w 4 , ; ",
"% @ , 5 5 O r.* @ , 9 5 . 5 9 ; 5 ~ 5 . 5 ; ; 5 @ 0 @ v 7 O * w O # < 0 5 @ w.# @ , 9 5 O 0 5 ; 5 ~ 5 @ 6 ; , 5 # 0 O n 7 @ * e ",
"; # ; ; ; # 5 * # ; ; ; # ; ; * ; 5 ; @ , * * ; # ; # 2 ; # * ; # # ; ; ; # 5 # # ; ; ; # ; ; * ; 4 ; @ ; * * ; # ; @ 4 ; # # 4 ",
"; O O O O . . . . . @ # . X O O . . @ @ # # @ . @ . . . X + + X # @ O O O o . o o O @ # o O O @ o o # O O # # O + . . . . O . & ",
"# t.r.` 2.V.b.b.N.y.i # C.' ~ y.V.n.` o.>.> y c.` V.V.:.` ' ' :.  y.r.` -.N.M.v.N.r.y % A.` ` y.N.d.` o.-.; p c.@.V.V.{ ' ` ` e.",
"# @.L u u ' s Q ~ V q # d.i u V ` Q q h k ; q 1.q ' ` k i a i y   @.V y u ' k ~ ` n 7 # d.i u V ~ T q h v ; y <.q o.` s i a u u ",
"# v e ; @ 5   4 4 5 , # 1.5 5 5 5 ,   5 5 $ 5 i   5 5 5 5 5 4   @ k e ; # 5   4 5 5 , * ' 1 5 5 5 ,   5 5 * 7 t   5 5 5 5 5 , @ ",
"# v e 5 5 5 . 5 5 5 < # 1.5 9 ; ; 5 5 5 5 $ 5 v 4 6 * 4 5 5 5 5 O M e 5 5 5 O 5 5 5 , * @.5 6 ; ; 5 4 5 5 * 7 v 4 5 * 4 5 5 5 5 ",
"# v e 4 5 5 # 4 5 5 < # -.7 5 ; ; 5 5 4 5 * 5 v 5 5 # 4 5 5 5 5 . M w 4 5 5 # 4 5 5 , * @.5 5 ; ; 5 5 4 5 * 8 v 4 5 # 4 5 5 5 0 ",
"# F 5 O * 6 0 @ 4 0 4 * r.9 # , < # 0 O 5 $ q s O @ 6 5 5 , # 0 . Q 4 O % 5 0 @ 4 5 2 * 2.5 # < < * 6 . 5 * q i . @ 6 5 5 , # w ",
"% 4 ; # * ; ; # ; ; * # 7 ; # ; ; # ; # ; # ; 2 # # ; ; ; - # ; @ 4 ; @ * ; ; # & ; & # 7 ; # = = * ; @ ; # ; 2 # # ; ; ; ; # 4 ",
"# . . o @ @ . . . . . . . . . # @ . . O . . . . @ O # . . . . . . . O @ @ # . @ O . . . . . . # # . o @ . o . . @ @ # . . . . # ",
"D.>.~ @.k . G.>.| r.V.V.N.V.w.4 7 b.~ ~ b.b.y.o.o.2.. 3.r.e.b.b.V.@.` o.k O A.o.` y.b.b.h.b.1.4 w b.| | b.N.y.| | w.. r.y.w.b.V.",
"F i a a t . d.a w i ~ M ..` v , 7 w.i a ~ o.k y a k . ~ M u @.' M h a a w O d.a q k ~ M ~ ( s , 7 w.i i Q ` s y h v . ( s i o.:.",
"@ 4 5 5 2 @ @.5 # ; , . 5 4 5 ; 2 V < 5 5 5 - # 5 5 o s 2 # 5 5   5 5 5 4 @ @.5 # ; , @ 5 4 5 = 4 v < 5 5 5 ; # 5 5 O v 2 * 5 0 ",
"7 % , 5 4 @ :.9 5 5 , # 5 5 5 ; 3 V 5 5 * 4 5 5 5 5 @ s t 5 5 # 5 * 4 5 4 @ @.5 4 5 , @ 5 5 5 = 5 F 5 9 * 4 5 5 5 5 O v w 5 5 ; ",
"5 # ; 5 4 @ -.5 5 5 4 # 5 5 5 ; 3 V 5 5 * , 5 5 5 5 @ s t 4 5 # 5 # , 5 4 @ @.5 5 5 , * 5 5 5 = 5 F 5 5 # , 5 5 5 5 O v t 5 4 ; ",
"& @ 2 5 5 @ r.* @ ; 9 5 O 5 5 ; 5 ~ 5 O 5 ; ; 4 @ 0 @ M 7 O * 0 @ # 4 5 4 @ w.# @ , 9 5 O 5 5 = 5 L 5 O 5 ; ; 4 # 0 @ m 5 O # w ",
"; # ; ; ; # 7 # # * ; ; # ; ; * ; 5 ; @ ; * * ; # ; # 2 ; # * ; # # ; ; ; # 7 # # - , ; # ; ; * ; 3 ; # ; * ; ; # ; @ 2 ; # # 4 ",
"; O O O . . . . . O O # . . . O . . O O . # @ . O . . . O O O . # O . O O .   . . . @ # . . . . . . . O . # @ . . . . . . O o # ",
"@ r.r.o.e.V.b.b.b.y.i # G.o.o.y.V.c.o.@.1.> t c.` V.B.1.( ( | e.  y.w.` 2.V.N.N.V.i.i % G.` ` y.N.v.o.@.-.; i m.' V.V.<.` ' ' e.",
"# @.F t u ` s ~ ` V q # a.i i F ` F q a l ; q 1.q ' ` s i i i t   @.F t t o.s ~ ` V 7 * d.a i F ` F q i k - y @.q ` ` s i a u u ",
"# k e ; # 5 . 1 5 5 , * @.5 5 5 5 < . 5 5 * 7 i   5 5 5 5 5 4 . @ M w ; # 5 . 5 5 5 , * @.5 5 5 5 ,   5 5 # q u   5 5 5 5 5 , @ ",
"# z e 5 5 5 O 5 5 5 , * @.5 5 ; ; 5 4 5 5 * 7 v < 0 # 5 5 5 5 5 . M t 5 5 5 O 5 5 5 , * :.5 5 ; ; 5 4 5 5 * q s 5 9 * 5 5 5 5 5 ",
"# z e 4 5 5 # 5 5 5 , * @.5 5 ; ; 5 5 5 5 * 7 v 5 5 # 4 5 5 5 5 . M q 5 5 5 # 5 5 5 , * :.5 5 ; ; 5 6 5 5 * 7 v 4 5 * 5 5 5 5 0 ",
"# F 3 @ # 6 0 # , 5 , * 2.0 # 2 , # 0 . 5 * 7 s o @ 6 6 6 < # 0 o T 4 @ # 6 0 @ 4 5 , * 2.9 # < < # 0 @ 6 * q a . @ 0 5 9 , @ w ",
"& 5 ; # # ; ; # ; ; ; # 7 ; # - * # ; # ; * ; 4 # # ; ; ; = # ; # 3 ; # # ; ; # ; ; ; # 7 ; # = = # ; @ ; # ; 2 # # ; ; ; % # 4 ",
"@ . o o @ # . . . . . . . . O # @ . . O . . . . o @ # @ . . . . . . O . @ # . . . . . . . . @ # @ . @ @ . . . . . O # o o o . @ ",
"D.<.~ ' k . D.@.~ y.B.V.V.V.r.3 7 b.~ ( h.N.y.' ' 2.. e.y.3.b.V.V.<.@.>.k O D.@.( i.V.V.N.V.2.2 q N...~ N.B.y.>.>.2.. r.u.r.V.V.",
"I i a h y . a.a y k ~ k ` ` v , 7 r.u i ` o.k y i k . ~ M u o.o.M a a a w O d.a r k Q v ` ' v , 7 w.i i ~ o.k t a k . ' s i ~ ' ",
"@ 2 5 5 4 O @.5 # - , . 5 4 5 = 4 F < 5 5 5 ; # 5 5 O i 2 # 5 5   2 5 5 < # ` 5 @ ; ; o 5 4 7 * 2 V < 5 5 5 = # 5 5 O k 2 # 5 6 ",
"8 - , 5 4 @ @.5 5 5 , # 6 5 5 ; 4 F 5 5 * 4 5 5 5 5 O s t 4 5 # 5 % , 5 4 @ @.5 5 5 , # 5 5 5 - 2 F 5 5 * 4 5 5 5 5 @ k e 4 5 ; ",
"0 # ; 5 4 @ :.5 5 5 4 * 5 5 5 ; 4 F 5 5 * , 5 5 5 5 @ s t 5 4 # 5 * , 5 4 # @.5 5 5 < * 5 5 5 - 2 F 5 5 * , 5 5 5 5 @ k e 5 < ; ",
"% # 2 5 4 @ r.# O , 0 5 . 5 5 ; 5 ~ 5 . 5 % ; 4 @ 0 # M 7 O * 0 @ # 4 5 5 # r.# @ , 0 5 . 0 9 ; 4 ~ 5 . 0 % , 4 # 0 @ F 7 @ * e ",
"; # - ; ; # 7 * # % ; ; # ; ; * ; 4 ; @ ; # % ; # , # 2 ; # * , # # ; ; ; # 7 # # - ; ; @ ; ; * ; 5 ; # ; # - ; # ; @ 4 ; # * 4 ",
"; # # # # # # # # # # # # # # # # # # # # # # # # # # # # # # # # # # # # # # # # # # # # # # # # # # # # # # # # # # # # # # & "
};
