/* XPM */
static char *_4137d72e58249a0b99782fac185e18eUlmuW0Hpdx72Xziq[] = {
/* columns rows colors chars-per-pixel */
"64 64 149 2 ",
"   c black",
".  c #0B0603",
"X  c #0F0C07",
"o  c #0F0C0A",
"O  c #100C07",
"+  c #16010B",
"@  c #18030C",
"#  c #130D0B",
"$  c #15110D",
"%  c #1D160F",
"&  c #1E0C14",
"*  c #1E1611",
"=  c #20170F",
"-  c #211712",
";  c #2B1517",
":  c #241913",
">  c #2C141B",
",  c #2F1919",
"<  c #32171D",
"1  c #331B1E",
"2  c #391D1F",
"3  c #361C21",
"4  c #3A1E22",
"5  c #362021",
"6  c #3C2023",
"7  c #451C1D",
"8  c #4B1D1C",
"9  c #531F1E",
"0  c #4E211E",
"q  c #50221E",
"w  c #4D1F21",
"e  c #4E2121",
"r  c #532322",
"t  c #5B2626",
"y  c #5C2A26",
"u  c #592728",
"i  c #5D2B29",
"p  c #602A27",
"a  c #612D2A",
"s  c #65302C",
"d  c #68302D",
"f  c #7E3E2D",
"g  c #7F3F31",
"h  c #84432F",
"j  c #834331",
"k  c #8A4734",
"l  c #874934",
"z  c #8A4835",
"x  c #894835",
"c  c #8D4B37",
"v  c #8E4B36",
"b  c #8F4B36",
"n  c #8E4B37",
"m  c #8F4B37",
"M  c #8D4C36",
"N  c #8D4C37",
"B  c #8E4C36",
"V  c #8F4C36",
"C  c #8E4C37",
"Z  c #8F4C37",
"A  c #8B4935",
"S  c #8D4B38",
"D  c #8E4B38",
"F  c #8F4B38",
"G  c #8F4C38",
"H  c #8E4C38",
"J  c #904B36",
"K  c #904B37",
"L  c #974F37",
"P  c #904B36",
"I  c #934F39",
"U  c #924F3A",
"Y  c #934F3A",
"T  c #934F3B",
"R  c #924F3B",
"E  c #944F38",
"W  c #944F3A",
"Q  c #944E3B",
"!  c #934E3A",
"~  c #925037",
"^  c #92513B",
"/  c #95503D",
"(  c #94523C",
")  c #97533F",
"_  c #97543D",
"`  c #94513B",
"'  c #9A523B",
"]  c #98523E",
"[  c #9B533E",
"{  c #98543E",
"}  c #9A533D",
"|  c #955441",
" . c #B96841",
".. c #BE6C4A",
"X. c #BF714A",
"o. c #C16E47",
"O. c #C06C45",
"+. c #C06E49",
"@. c #C5734C",
"#. c #CA744B",
"$. c #D1784F",
"%. c #D07A4F",
"&. c #CF7952",
"*. c #D17A50",
"=. c #D17952",
"-. c #D67D53",
";. c #D77D53",
":. c #D57E53",
">. c #D67E53",
",. c #D17C54",
"<. c #D57D54",
"1. c #D77D54",
"2. c #D57F54",
"3. c #D57F55",
"4. c #D67E54",
"5. c #D77E54",
"6. c #D67F54",
"7. c #D67F55",
"8. c #D77F55",
"9. c #D67E56",
"0. c #D77E56",
"q. c #D67F56",
"w. c #D67F57",
"e. c #D67E55",
"r. c #D87D54",
"t. c #D87E56",
"y. c #D67E58",
"u. c #D68054",
"i. c #D68156",
"p. c #DA8256",
"a. c #DB835A",
"s. c #E1875C",
"d. c #E1885D",
"f. c #E5895C",
"g. c #E5895D",
"h. c #E4895E",
"j. c #EA8C5E",
"k. c #E78961",
"l. c #EC8F65",
"z. c #EB8D63",
"x. c #FFB67D",
"c. c #FFBE89",
"v. c #FFC68B",
"b. c #FFC78C",
"n. c #FFC78D",
"m. c #FFC78E",
"M. c #FFC58B",
"N. c #FFC88D",
"B. c #FFC690",
/* pixels */
"# # # # # # # # # # # # # # # # # # # # O : : : - # # # # # # # # # # # # # # # # # # # # # # # # # O : # # # # # # # # # # # # ",
"<.;.;.;.;.;.<.;.;.;.;.;.;.;.;.;.;.;.;.$.v.@ - - t d.<.<.<.<.<.<.<.<.<.<.<.<.<.<.<.<.<.<.<.<.<.<.<.*.m.  l.<.<.<.<.<.<.<.<.<.<.<.",
"j j j j j j j j j j j j j j j j j j j g o.m.+ - i k j j j j j j j j j j j j j j j j j j j j j j j f 3.o r j j j j j j j j j j j ",
"x k k x k k x k x k x k x k k x k x k x f ..m.. i J x x x x x x k x x x x x x x x x x x x x x x x j i.o i b x x x x x x x x x x ",
"k A k x x x k x x x x x x x x x x x x k k f *.X i b x x x x x x x x k k k k k x x x x x x x x x x j <.o y b x x x x x x x x x k ",
"x k x x x x x x x x x x k x x x x x x x k j <.O i b x x x x x x k k x N b N x k x x x x x x x x x j <.o i b k x x x x x x x x x ",
"x x x x x x x x x x x k x b x x x x x x x j r.o i b x x k k k k x F E e r e F x x x x x x x x x x j <.o i F x x x x x x x x x x ",
"x x x x x x x x x x x x b 0 b x x k x x x j <.X i b k k b b b b I 0 0 I b N k x x x x x x x x x x j <.o i b k x x x x x x x x x ",
"x x x x x x k x x x x x b 0 I b F x k x k j <.O a E N E 0 r r r e | G x k k x x x x x x x x x x x j <.o i F x x x k x x x x x x ",
"x x x x x k N k k k k k P [ u y r I k k b j <.O 3 r r 8 ( b b b I 8 ^ k x x x x x x x x x x x x x j i.o i b k x k F k x x x x x ",
"x x x x k N 8 E F x x E t i 2 4 1 u J I 8 j <.# < ( b G x k x x k I r b k x x x x x x x x x x x x j <.o i b k x b r b x x x x x ",
"x x x x k x E 0 0 ^ I t 1 4 : - 4 i ' 8 I x g.O i J k x x k x x x b e b x x x x x x x x x x x x k j <.o a E b k I r b x x x x x ",
"x x x x x k k b { r p 3 6 - : : - 4 t ( E t ; * i J k k k x x x x x b x x x x x x x x x x x x k G k g.O 4 i r [ 8 I x k k k k k ",
"b b b b b b b E t 1 3 4 4 - : : : - 4 i i 4 - = a E b J J J J J J J J J J J J J J J J J J J J E r i > - : 4 3 t _ N J b b b b b ",
"i i i i i i y i 1 4 4 4 4 6 - : : : - 4 6 - : : 1 i y i y y i y i y y i i y i y i y y i y y i a 3 6 - : : : - 2 a i i i i i i i ",
"- - - - - * 5 > > > 1 1 3 1 6 - : : = # # # # * O o O O O O O O O O . - - - - O O O O O O O O O O O # # # # # # o o o o o o o o ",
": : : : : : # j.*.p.j I r a 1 4 4 3 r s.3.<.p.k a.;.<.<.<.<.<.<.<.&.v.@ - : # j.;.;.<.<.<.<.<.<.<.r.<.<.<.<.<.<.<.<.<.<.<.<.<.<.",
"2 4 4 4 6 - - r k f 3.;./ y 1 1 a u ` h j j b 8 k j j j j j j j j f o.v.+ > % r k j j j j j j j j j j j j j j j j j j j j j j j ",
"a a a s 1 6 * i b x j k e y i t [ I x k k b e I x x x x x x x x x x f +.x.M.. i b x k k k k k k k k k k k k k k k k k k k k k k ",
"i y y y a 4 * i b x x x ( r ^ I 8 b x k k E e F A k x k x x k x x k x f @.#.O i b x k x k k x x x x x x x x x x x x x x x x x x ",
"y i i i a 4 % i b x x b 8 ^ A l b k k x F r ` x k x x x x x x x x x k x f <.o i b x x F F x k x x x k k k k k x x x x x x x x x ",
"i i i i a 4 % i b x x k G x x k k x x k I r ( x k x x x x x x x x x x x j <.O i b x b 0 0 ^ k x x k x b b x G k x x x x x x x x ",
"i i i i a 4 * i b x x k x x x k x x x b e ( e G k x x x x x x x x x k x j <.O i b k k N I 7 E x k x I e e ( 8 F x x x x x x x x ",
"i i i i a 4 % i b x x x k k k x x x k E e I 8 N k x x x x x x x x k b k j <.O i b x k k k ^ e b k I 8 ^ I 8 _ k x x x x x x x x ",
"i i i i a 4 % i b x x x x x x x x x F 8 I x F A k x x x x x x x k b 8 I j <.O i b x k x x b e I b r ^ k k ^ 8 I k x x x x x x x ",
"i i i i a 4 % i b x x x x x x x x k x F k x x x k x x x x x x x k x E 8 b a.O i b k x x x k ~ 8 ` r F x k x ^ 8 b x x x x x x x ",
"i i i i a 4 * i b x x x x x x x x x k x x k k k x x x x x x x x x k x I 7 b $ i b x k x x k x E e I x x k k x b k x x x x x x x ",
"i i i i a 4 * i b k x x x x x x x x x x x x x x x x x x x x x x x x x k k a.O i b x k x x x k E e b x k x x k k x x x x x x x x ",
"i i i i a 4 % i I x k x x x x x x x x x x x x x x x x k k x x x x x x x j <.O i ^ x k x x x b 0 I k x x x x x x x x x x x x x x ",
"i i i i i 4 - 4 t E b x k k k x k k k k x k k k k k k I I k k k k k k k j <.O d r E k k k k E r F x k k k k k k k k k k x x k k ",
"i i i i a 3 - - 2 i u E G G G F G G G G F G G G F b [ > > { G P I I I I k s.O 6 3 t L N b E e ` b F b N b b b b b b b b b J b F ",
"i i i i y a 1 : - 4 3 a i i i i i i i i i i i y i a 1 - - < a y i i i i i i - : - 3 a i i a 1 a i i y i i i i i i i i i i i i i ",
"r r r r r r u > O # # O O $ X X X X X X X . % - O X O # # # X X O X X X X X # # # # X X X X # . = = - - . X . X X O . X O . X . ",
"3.,.$.*.*.*.*.3.<.<.<.r.s.j a.<.y.y.y.y.*.v.@ # l.<.<.r.<.<.<.<.<.<.<.<.<.<.r.<.<.<.<.<.<.<.$.N.+ - : # l.<.<.<.<.<.<.<.<.<.<.<.",
"j j j j j j j j j j j x 7 b j j j j j j f +.m.. r j j j j j j j j j j j j j j j j j j j j j f +.B.@ - - r j j j j j j j j j j j ",
"x x k k k k k k k b I 8 ^ k x x k k k k k f *.o i b k x k k x x k x x k x x k x x k k x k k x f  .c.> * i F A x x x x k k k k k ",
"k k x x x x k x I r r I k x x k x x x x k j <.o i b x k x x k k x k k x k k x k k x x k x x x j @.x.+ * i b k x x x k k k k G N ",
"x x x x x x b I 8 ^ b k x x x x x x x x k j <.o i b k x x k x N k x x x x x x x x x x x x x x x f X.v.. i b x x k k x N b E r t ",
"x x x x k E w e _ x x k x x x x x x x x k j <.o i N k x x k N e b x x x x x x x x x x x x x x k x f *.o i b x k x F I u i a 1 3 ",
"x x k k I 8 ^ E 0 b k x x x x x x x x x k j <.o i b x x x k ^ e b x x x x x k k x x x x x x x x k j <.o i b x x b 0 y 1 1 3 4 4 ",
"x k b I 8 R k b e I k x x x x x x x x x k j <.o i b x x k b w E k x x x x k b x k x x x x x x x x j <.o i b x x k E r i a 1 3 3 ",
"k ^ r r Q x k k I 8 b x x x x x x x x x k j <.o i N k k x I 8 G k x x x k N 8 ^ k k k x x x x x x j <.o a b x x x k b b I t i i ",
"I 8 G b A k x x k N x k x x x x x x x x k j <.X i b x k G 8 / x k x x x x k I 8 E N x k x x x x k j <.o i b x x x x k k k F b b ",
"r / k k x x x x k x x k x x x x x x x x k x g.o i b k x k N k x k k k k k k k I e r I k k k k k k j <.o i b x x x x x x x x x x ",
"G A k x x x x x x k k x x x x x x x x k ^ t > % a ^ k x x x x k x x x x x x x x b ^ 8 b x x x x x j g.o i F k x x k k k k k k k ",
"b b b b b b b b b b b b b b b b b b b E t 3 - : 3 t Q J J J J J J b b J b b J J b b E J J J b b J ` ; * a E N b b b b b b b b b ",
"i i i i i y y i i i y y i i i y y i i y d 4 : : - 3 a i i i i i i i i i i i i i i i i i i i i i i a 4 - 4 a i i i i y i y y i y ",
"- - - - - - - - - o o o o % o o o o o o O # # # # O o o o o o o o o o o . - - * - o o o o o o o o o O # # O O O O O O O O O O O ",
": : : : : : : : ; k.<.<.s.8 k.i.<.3.<.<.<.<.<.<.<.<.<.<.<.<.<.<.<.<.<.$.m.+ - : - g.<.<.<.<.<.<.<.<.<.<.<.<.<.<.<.<.<.<.<.<.<.<.",
"> > > 1 4 : : : 1 8 x j j I 8 k j j j j j j j j j j j j j j j j j j j f +.N.o 1 ' j j j j j j j j j j j j j j j j h j j j j j j ",
"<.<.a.k t 6 - 3 t Q x k k b e ^ k k x x x k k k k k k k k k k k k k k x f $.O a b x k A k k k k k k k k k k k k x k k k x k k k ",
"h j g i.A 3 * a I A k x x k E 0 b x x x x x x x x x x x k k x x x x x x j <.# i b x k x k x x x x x x x x x x x x x x k b b k x ",
"x k k f a.> * i b k x x x k ^ e b x x x x x x x x x k k F x k x x x x x j <.o i N x k k x x x x x x x x x x x x x x x b 0 0 E k ",
"k x k j p.& * i b x x x k G 8 _ k x x x x x x x x k x I 8 b k x x x x x j <.o i b x k x k x x x x x x x x x x x x x x k b ^ 7 ^ ",
"x x x k f d.O i b x x k k x ( 8 N k x x x x x x x k N e E x k x x x x x j <.o y F A k k F k x x x x x x x x x x x x x x k k E 0 ",
"x x x x j r.o i b x k b k I r E b k x x x x x x x k E e b x k x x x x x j <.o i N x k b q F x x x x x x x x x x x x x x x x k b ",
"x x x x j r.o i b x F 8 ( u i ( 8 b k x x x x x k N 8 R x k x x x x x x j <.o i N k x I e R k x x x x x x x x x x x x x x x x x ",
"x x x x j r.o i b k x I r 3 1 t { x k x x x x x k x b x x k x x x x x x j <.o y F A b 0 ( 8 I k x x x x x x x x x x x x x x x x ",
"x x x x j <.o i b x k k [ t 1 1 u N k x x x x x x k x k k x x x x x x x j <.O a I b I 0 b I 8 F k x x x x x x x x x x x x x x x ",
"x x x x j <.o i b x x b 8 [ t , u I k x k k x x k x x k x x k k x k k x j <.# 3 y t w I k x F x k x x x x x x x x x x x x x x x ",
"x x x x j <.o i b k k k b k _ r [ 8 b k x x k k x k k x k k x x k x x k j <.# - 3 y ` x k k k k k k k k k k k k k k k k k k k k ",
"b b b b k s.o a L b b b b ` 9 ` N L J J N b J b N J J N J J N b J N b J k s.# : 4 i ` N b b b b J J b b b b b b b b b b b b b b ",
"i i y i y t * 2 a i i i a > d i i i i i i i i i i i i i i i i i i i i i i i * : - 1 a i i i i i i i i i i i i i i i i i i i i y ",
"- - - - - - : : - - - - - : - - - - - - - - - - - - - - - - - - - - - - - - : : : : - - - - - - - - - - - - - - - - - - - - - - "
};
