/* XPM */
static char *_ad451fd67744c4cb19a5c4b2223bc9dAyS7Wjl1T5Q481i4[] = {
/* columns rows colors chars-per-pixel */
"64 64 173 2 ",
"   c #01010B",
".  c #06090B",
"X  c #120E0B",
"o  c #19120B",
"O  c #1B1A0F",
"+  c #080E13",
"@  c #141313",
"#  c #261913",
"$  c #3E2D0E",
"%  c #2A272A",
"&  c #27292B",
"*  c #2B2A2C",
"=  c #322E2D",
"-  c #323527",
";  c #3D3A2C",
":  c #3D3D3F",
">  c #442D0E",
",  c #4D310F",
"<  c #51340B",
"1  c #573B0E",
"2  c #4C3211",
"3  c #533414",
"4  c #5B3D15",
"5  c #52381C",
"6  c #5A3C1B",
"7  c #613915",
"8  c #6A3B17",
"9  c #6D3D1A",
"0  c #713D1A",
"q  c #543C20",
"w  c #413335",
"e  c #5E431C",
"r  c #5C4215",
"t  c #6E4315",
"y  c #63451D",
"u  c #69461C",
"i  c #65481E",
"p  c #68481E",
"a  c #714616",
"s  c #74441B",
"d  c #744D1E",
"f  c #7B5A1C",
"g  c #5D4620",
"h  c #56452A",
"j  c #59452B",
"k  c #5E492B",
"l  c #634521",
"z  c #684720",
"x  c #654923",
"c  c #6D4B21",
"v  c #614729",
"b  c #624A2C",
"n  c #684D2C",
"m  c #734D23",
"M  c #724E28",
"N  c #7C4C29",
"B  c #6E5225",
"V  c #745325",
"C  c #7A5425",
"Z  c #775827",
"A  c #7A5A26",
"S  c #755529",
"D  c #7D552A",
"F  c #76592A",
"G  c #7A5B2A",
"H  c #674C30",
"J  c #6E5B3F",
"K  c #7D5A31",
"L  c #715A3F",
"P  c #424142",
"I  c #444648",
"U  c #6F5A40",
"Y  c #725B40",
"T  c #7F6244",
"R  c #7C6649",
"E  c #7B684F",
"W  c #6B6D6C",
"Q  c #736F6D",
"!  c #6E736E",
"~  c #6E6C71",
"^  c #737474",
"/  c #805727",
"(  c #81572B",
")  c #81592B",
"_  c #815B33",
"`  c #866225",
"'  c #86652E",
"]  c #89662E",
"[  c #8B692E",
"{  c #93742F",
"}  c #866531",
"|  c #8A6732",
" . c #876932",
".. c #8C6A34",
"X. c #866839",
"o. c #8D6C3A",
"O. c #916D36",
"+. c #926E39",
"@. c #8F7031",
"#. c #8E713C",
"$. c #927235",
"%. c #9A7B35",
"&. c #93713B",
"*. c #9A753C",
"=. c #977A3D",
"-. c #9C7C3C",
";. c #A17D3E",
":. c #816344",
">. c #896446",
",. c #876548",
"<. c #8A6548",
"1. c #816D4D",
"2. c #8E7342",
"3. c #937441",
"4. c #967943",
"5. c #9B7E42",
"6. c #94754C",
"7. c #826E53",
"8. c #8C7252",
"9. c #987E55",
"0. c #A17C40",
"q. c #9E813E",
"w. c #A1833F",
"e. c #9E8241",
"r. c #9E8656",
"t. c #A28443",
"y. c #A98143",
"u. c #A68945",
"i. c #A98B45",
"p. c #A28749",
"a. c #A48748",
"s. c #A58649",
"d. c #A88649",
"f. c #A5894C",
"g. c #A68A4D",
"h. c #A68A4D",
"j. c #A6894A",
"k. c #A98A4E",
"l. c #A98B4E",
"z. c #AA8C4A",
"x. c #AE9047",
"c. c #AE9549",
"v. c #AE954A",
"b. c #AF974F",
"n. c #AC924B",
"m. c #AD9C4D",
"M. c #B1944C",
"N. c #B49A4F",
"B. c #A68D53",
"V. c #AA8F55",
"C. c #AB9155",
"Z. c #AB935A",
"A. c #AF995A",
"S. c #B29953",
"D. c #B39E53",
"F. c #B59D53",
"G. c #B69D53",
"H. c #B49E53",
"J. c #B29B54",
"K. c #B59B54",
"L. c #B59E56",
"P. c #B49B54",
"I. c #B99E56",
"U. c #B59C59",
"Y. c #B99E59",
"T. c #BDA65C",
"R. c #C0A560",
"E. c #FEFDF5",
"W. c #FFFEFF",
"Q. c white",
"!. c #FFFEFE",
"~. c #FEFEFC",
"^. c #FFFFFF",
/* pixels */
"p.f.t.t.t.t.t.t.e.e.f.f.f.f.f.a.e.e.l.l.f.f.l.l.p.p.f.f.l.p.) 9.9.) p.l.f.f.p.p.l.l.f.f.l.l.e.e.a.f.f.f.f.f.e.e.t.t.t.t.t.t.f.p.",
"L.S.n.c.c.c.c.M.c.c.D.D.G.G.N.N.c.c.L.G.G.G.G.G.G.G.G.G.G.b.` r.r.` b.G.G.G.G.G.G.G.G.G.L.L.c.c.N.N.G.G.D.D.c.c.M.c.c.c.c.n.S.L.",
"K.S.O.&.O.+.G G &.O.$.O...o.........o.o.o...O.O.o.o.O.&.&.o.7 :.:.7 o.&.&.O.o.o.O.O...o.o.o.........o...O.$.O.&.G G +.O.&.O.S.K.",
"K.J...+.+.+.F A +.O.O... . .| | |  . . . . .O.o. . .....+.| 7 :.:.7 | +..... . .o.O. . . . . .| ] ]  . ...O.O.+.A F +.+.+...J.K.",
"K.J...+.V C V V C C C C A A +...) ) ) ) ) ) D G z c &.O.+.| 7 :.:.7 | +.O.&.c z G D ) ) ) ) ) ) ..+.A A C C C C V V C V +...J.K.",
"L.U.+.&.V V M m m m m m C C ....) ) s s a a t t < 1 &.+.&.O.7 :.:.7 O.&.+.&.1 < t t a a s s ) ) ....C C m m m m m M V V &.+.U.L.",
"0.0.Z G 7 7.Q.Q.Q.Q.Q.Q.Q.Q.` &.y n Q.Q.Q.Q.Q.Q.Q.Q.) ..G F 3 Y Y 3 F G ..) Q.Q.Q.Q.Q.Q.Q.Q.n y &.` Q.Q.Q.Q.Q.Q.Q.Q.7.7 G Z 0.0.",
"y.y.V F 4 R Q.Q.Q.Q.Q.Q.Q.Q.` &.r x Q.Q.Q.Q.Q.Q.Q.Q.f | S S 2 J J 2 S S | f Q.Q.Q.Q.Q.Q.Q.Q.x r &.` E.Q.Q.Q.Q.Q.Q.Q.R 4 F V y.y.",
"; w Z C m 8.Q.Q.Q.Q.Q.Q.Q.Q.$.q.C K Q.Q.Q.Q.Q.Q.Q.Q.%.t. .] 8 ,.,.8 ]  .t.%.Q.Q.Q.Q.Q.Q.Q.Q.K C q.$.E.Q.Q.Q.Q.Q.Q.Q.8.m C Z w ; ",
"* & S V d 6.Q.Q.Q.Q.Q.Q.Q.Q.{ t.C ) Q.Q.Q.Q.Q.Q.Q.Q.%.t... .0 <.<.0  ...t.%.Q.Q.Q.Q.Q.Q.Q.Q.) C t.{ Q.Q.Q.Q.Q.Q.Q.Q.6.d V S & * ",
"W W | | y 1.Q.Q.Q.Q.Q.Q.Q.Q.{ t.C K Q.Q.Q.Q.Q.Q.Q.Q.{ e.] ' 7 :.:.7 ' ] e.{ Q.Q.Q.Q.Q.Q.Q.Q.K C t.{ Q.Q.Q.Q.Q.Q.Q.Q.1.y | | W W ",
"~ W |  .4 1.Q.Q.Q.Q.Q.Q.Q.Q.$.t.m K Q.Q.Q.Q.Q.Q.Q.Q.{ -.' ' 7 T T 7 ' ' -.{ Q.Q.Q.Q.Q.Q.Q.Q.K m t.$.Q.Q.Q.Q.Q.Q.Q.Q.1.4  .| W ~ ",
"A.Z...o...o.6.3.V.B.V.C.Z.C.q.t.' } 2.#.B.f.4.5.Z.C.u.t...| 9 >.>.9 | ..t.u.C.Z.5.4.f.B.#.2.} ' t.q.C.Z.C.V.B.V.3.6.o...o...Z.A.",
"I.L.O.+.*.&.O.O.x.z.z.z.z.z.t.t. ...[ [ i.t.$.*.M.z.n.l.+.O.0 >.>.0 O.o.l.n.z.M.*.$.t.i.[ [ .. .t.t.z.z.z.z.z.x.O.O.&.*.+.O.L.I.",
"t.t.A G i i z y i i i i y i G G i x i i z z y y i p G G G F 3 Y Y 3 F G G G p i y y z z i i x i G G i i i i i i y z i i G A t.t.",
";.-.V F e r v y l l l l g l V S y y x x x z l l g g V V G S 2 J J 2 S G V V g g l l z x x x y y S V l g l l l l y v r e F V -.;.",
"S.J...+.D m Q.Q.Q.Q.Q.Q.Q.Q.=.d.C _ Q.Q.Q.Q.Q.Q.Q.Q.=.s.| | 7 T T 7 | | s.=.~.Q.Q.Q.Q.Q.Q.Q._ C d.=.Q.Q.Q.Q.Q.Q.Q.Q.m D +...S.S.",
"L.L...&.) m Q.Q.Q.Q.Q.Q.Q.Q.%.i.D _ Q.Q.Q.Q.Q.Q.Q.Q.%.u.o...7 :.:.7 ..o.u.%.Q.Q.Q.Q.Q.Q.Q.Q._ D i.%.Q.Q.Q.Q.Q.Q.Q.Q.m ) &.O.G.L.",
"n.c.' | V u Q.Q.Q.Q.Q.Q.Q.Q.%.u.m D Q.Q.Q.Q.Q.Q.Q.Q.$.e.] ' 7 :.:.7 ' ] e.$.Q.Q.Q.Q.Q.Q.Q.Q.D m u.%.Q.Q.Q.Q.Q.Q.Q.Q.u V | ' c.n.",
"n.n.' | V u Q.Q.Q.Q.Q.Q.Q.E.%.u.c S Q.Q.Q.Q.Q.Q.Q.Q.{ -.' ' 7 :.:.7 ' ' -.{ Q.Q.Q.Q.Q.Q.Q.Q.S c u.%.Q.Q.Q.Q.Q.Q.Q.Q.u V | ' n.n.",
"K.S. .o.A d Q.Q.Q.Q.Q.Q.Q.E.$.t.m S Q.Q.Q.Q.Q.Q.Q.Q.%.t. .| 7 :.:.7 |  .t.%.Q.Q.Q.Q.Q.Q.Q.Q.S m t.$.Q.Q.Q.Q.Q.Q.Q.Q.d A o. .S.K.",
"I.L...+./ m Q.Q.Q.Q.Q.Q.Q.Q.%.t.m S Q.Q.Q.Q.Q.Q.Q.Q.%.u.o...7 :.:.7 ..o.u.%.Q.Q.Q.Q.Q.Q.Q.Q.S m t.%.Q.Q.Q.Q.Q.Q.Q.Q.m / +...L.I.",
"t.;.S S G D 4.=.o.o.o.+.#.&.{ &.Z A =.3.3.3.3.&.o.&.[ ..Z S 2 Y Y 2 S Z ..[ &.o.&.3.3.3.3.=.A Z &.{ &.#.+.o.o.o.=.4.D G S S ;.t.",
"0.;.V V F Z $.O.[ [ [ [ [  .&.&.Z G $.O.@.$.$.o.] | o. .V B 2 U U 2 B V  .o.| ] o.$.$.@.O.$.G Z &.&. .[ [ [ ] [ O.$.Z F V V ;.0.",
"K.K...+.+...z.f.f.z.w.w.f.u.q.t.}  .t.t.e.e.t.t.u.t.$.$.+...9 ,.,.9 ..+.$.$.t.u.t.t.e.e.t.t. .} e.q.u.f.w.w.z.f.f.z...+.+...K.K.",
"L.J...+.&.+.C.n.l.l.t.t.z.z.w.t.]  .i.u.u.u.u.t.z.z.$.&.+...9 >.>.9 ..+.&.$.z.z.t.u.u.u.u.i. .] t.w.z.z.t.t.z.z.n.C.+.&.+...J.L.",
"S.S.] X.z i ) ) ) ) ) ) ) D  . .D ) / D D D V C V Z | | | ' 8 >.>.8 ' | | | Z V C V D D D / ) D  . .D ) ) ) ) ) ) ) i z o.] S.S.",
"S.S.'  .i i G ( D D D D D D ' ' ) ( C A D D C C D A *.#...] 8 >.>.8 ] ..#.*.A D C C D D A C ( ) ' ' D D D D D D D G i i  .' S.S.",
"K.S...&.V V | | | | +.+.+.+.t.t.A ) +.o.[ X.: P * * @ # N s 0 <.<.0 s N # @ * * P : X.[ o.+.) A t.t.+.+.+.+.| |  .| V V +...S.K.",
"R.T.O.&.C V |  . . .&.&.O.$.u.t.D ) &.+. .X.P I & & . o N m s <.<.s N N o . & & I P X. .+.&.) D t.u.$.O.&.&. . . .| V C &.O.T.R.",
"- = G D u z K G S S S S G G O.O.y z G G G F + O q 6 &.X.2 5 3 Y Y 3 5 2 X.&.6 q O + F G G G z y O.O.G G S S S S G K z u D G = - ",
"* & G G z y G D V Z S V G G ....y z G F F S   X 3 < $.] > 2 3 J J 3 2 > ] $.< 2 X   S F F G z y  ...G G V S Z V D G y z G G & * ",
"^ ! |  .V V |  . .| +.+.+.o.z.f.m S &.+.+.+.&.&.+.&.z.a.o...7 :.:.7 ..o.a.z.&.+.&.&.+.+.+.&.S m f.z.o.+.+.+.|  . .| V V  .| ! ^ ",
"~ W |  .m m  .] ' ' O.O.....z.u.m V +.O...O...o.O.O.z.t.O...7 :.:.7 ..O.t.z.O.O.o...O...O.+.V m u.z.....O.O.' ' ]  .m m  .| W ~ ",
"U.U...+...o.&.$.f.u.u.t.t.t.e.t.} | t.t.t.t.u.t.t.t.u.t.....7 :.:.7 ....t.u.t.t.t.u.t.t.t.t.| } t.e.t.t.t.u.u.f.$.&.o...+...U.U.",
"K.J...+...o.*.$.z.i.z.z.t.t.t.t.' [ u.t.t.t.z.z.t.t.z.a.....7 :.:.7 ....a.z.t.t.z.z.t.t.t.u.[ ' t.t.t.t.z.z.i.z.$.*.o...+...J.K.",
"G.S...+.|  .[  .] ' ' | ........+.+.O.O.O.O.| | V A o.o.+...7 :.:.7 ..+.o.o.A V | | O.O.O.O.+.+.........| } ' ]  .[  .| +...S.G.",
"I.U.o.&.| | | ..........+.+.o.o.&.&.&.&.&.&.+.+.G G &.&.&...7 :.:.7 ..&.&.&.G G +.+.&.&.&.&.&.&.o.o.+.+...........| | | &.o.U.I.",
"-.-.V S y y i i z z i z z y G G i i i i y y y y l y S Z G S 2 Y Y 2 S G Z S y l y y y y i i i i G G y z z i z z i i y y S V -.-.",
"-.*.V Z e y i y y y y y y y G F y i y y e e e y e r V V G S , J J , S G V V r e y e e e y y i y F G y y y y y y y i y e Z V *.-.",
"L.U.} | S S o. . . .+.+.+.+.t.t.D ) X.| | | F G +.$.l.t...| 9 <.<.9 | ..t.l.$.+.G F | | | X.) D t.t.+.+.+.+. . . .o.S S | } U.L.",
"L.J.' ..V S  .| | | +.+.O.O.t.t.D ) ..[ | | Z A +.O.z.t... .9 >.>.9  ...t.z.O.+.A Z | | [ ..) D t.t.O.O.+.O.| | |  .S V ..' J.L.",
"n.n.' | i u o.o.o.o.o...O.o.w.t.C D O.o.o...o.o.|  .t.q.| ' 7 T T 7 ' | q.t.[ | o.o...o.o.O.D C t.w.o.O...o.o.o.o.o.u i | ' n.n.",
"c.n.' | y y +.O.........O.o.t.t.C D O.o.O.O...o.|  .t.-.' ' 7 :.:.7 ' ' -.t. .| o...O.O.o.O.D C t.t.o.O.........O.+.y y | ' n.c.",
"L.J.o.+.) ) O.o.O.O.+.O.O.O.t.t.m V  .| C G &.O.O.O.l.t.....9 >.>.9 ....t.l.O.O.O.&.G C |  .V m t.t.O.O.+.+.+.O...O.) ( +.o.J.L.",
"Y.L.O.&.( D O...O.O.+.O.O.O.t.t.m V  .} Z G &.+.+.$.z.f.o...9 <.<.9 ..o.f.z.$.O.O.&.G Z }  .V m t.t.O.O.O.+.+.+...O.D ( &.O.L.Y.",
";.;.Z F S S O.O.o.o.O.O.O...$.$.D F *.&.O.O.o.O.O.o... .S S 3 L L 3 S S [ ..o.O.o.o.O.O.&.*.F D $.$...O.O.O.o.o.O.O.S S F Z ;.;.",
"-.-.Z G Z V O.O.o.O.O.o.O.o.&.&.V G *.&...O.O.O.o.o.o...C S 2 L J 2 S C ..o.o.o.O.O.O.o.&.*.G V &.&...O...O.O.o.O.O.V Z G C -.-.",
"Y.U.O.+.+.+.O.O.+.+.Z G | | +.+.+.+.........O...O.+.+.+.+...7 :.:.7 ..+.+.+.+.O.............+.+.+.+.| | G Z +.+.O.O.+.+.+.O.U.Y.",
"K.J...+.&.&.+.+.+.&.G G |  .+.+.+.+.O.O.O.O.+.+.+.+.+.O.+...7 :.:.7 ..+.O.+.+.+.#.+.O.O.O.O.+.+.+.+. .| G G &.+.+.+.&.&.+...J.K.",
"c.n.' | m V V V V V ) ) D A O...m V V V V V y i ( )  .|  .' 7 :.:.7 '  .|  .) ( i y V V V V V m ..O.A D ) ) V V V V V m | ' n.c.",
"K.m.}  .V C V V V m ( ( D D o. .V S V V V V y u ) ) | '  .} 7 :.:.7 }  .' | ) ) u y V V V V S V ..O.D D ( ( m V V V C V  .} m.K.",
"* % &.O.D A +.O.&.O.O.O.[  .t.t.m C ....O.O.o.+.O.$.z.a...| 7 :.:.7 | ..a.z.$.O.+.o.O.O.....C m t.t. .[ O.+.O.&.O.+.A D O.&.% * ",
"= & &.+.D D O.O.+.+.+.+. . .t.t.V Z .. .+.o.O.O.o.o.z.t...| 7 :.:.7 | ..t.z.o.o.O.O.o.+. ...Z V t.t. . .+.+.+.+.O.O.D D +.&.& = ",
"^ ^ V S i i G G Z Z S S S Z &.$.l i G G F F F F S Z .. .V V 2 L L 2 V V  ...Z S F F F F G G i l $.&.Z S S S Z Z G G i i S V ^ ^ ",
"Q W V S z i G F S S S S S Z *.$.y z G G G G F F S S $. .V B 2 U U 2 B V  .$.S S F F G G G G z y $.*.Z S S S S S F G i z S V W Q ",
"Y.U.o.&.) ) &.+.+.O. . .+.+.t.t.M C ..|  .| |  .o.o.*.&.$...9 <.<.9 ..$.&.*.o.o. .| |  .| ..C M t.t.+.+. . .O.+.+.&.) ) &.o.U.Y.",
"K.J...+.( ( +.o.o.o.} } o.o.t.w.m V  .' ' ] ' ' |  .$.$.o...9 >.>.9 ..o.$.$. .| ' ' ] ' '  .V m w.t.o.o.} } o.o.o.+.( ( +...J.K.",
"S.S.'  .G Z C.z.z.z.l.z.z.l.e.t.+.&.z.f.f.u.t.t.t.t.t.w.' } 8 >.>.8 } ' q.t.t.t.t.t.u.f.f.z.&.+.t.q.l.z.z.l.z.z.z.C.Z G  .' S.S.",
"S.S.'  .Z Z V.z.i.z.z.z.f.l.e.t...o.z.f.f.u.t.t.t.t.t.5.' ' 8 >.>.8 ' ' 5.t.t.t.t.t.u.f.f.z.o...t.e.z.f.z.z.z.z.z.V.Z Z  .' S.S.",
"L.J.O.+. . .' ' ' ' O...o...' ' +.O.....' ' ..........O.+...9 >.>.9 ..+.O...........' ' ....O.+.' ' ..o...O.' ' ' '  . .+.O.J.L.",
"Y.U.+.+.........| | &.&.+.&.| | &.+.&.&.| ..O.+.&.&.&.&.&.+.9 <.<.9 +.&.&.&.&.&.+.O...| &.&.+.&.| | &.+.&.&.| | ........+.+.U.Y.",
"Z Z , 2 2 3 3 3 2 2 2 2 3 3 2 2 3 2 2 2 3 3 , 2 $ > 2 2 2 2 3 J J 3 2 2 2 2 > $ 2 , 3 3 2 2 2 3 2 2 3 3 2 2 2 2 3 3 3 2 2 , Z Z ",
"o.o.v b b b n n v v v v n H v v b b b b b b v k h j b v v b v E E v b v v b j h k v b b b b n b v v H n v v v v n n b b b v o.o."
};
