/* XPM */
static char *_6c84f34d09e4efdcda0ccf440bf40cc9BvmUtpOq370dppO[] = {
/* columns rows colors chars-per-pixel */
"64 64 16 1 ",
"  c black",
". c red",
"X c #FF0808",
"o c #FF4848",
"O c #FF6060",
"+ c #FF6868",
"@ c #FF7878",
"# c #FF7C7C",
"$ c #FF9797",
"% c #FF9F9F",
"& c #FFA7A7",
"* c #FFDFDF",
"= c #FFE7E7",
"- c #FFF7F7",
"; c #FFFCFC",
": c white",
/* pixels */
"                                                                ",
"                                                                ",
"                                                                ",
"   ..........................................................   ",
"   ..........................................................   ",
"   ..........................................................   ",
"   ..........................................................   ",
"   ..........................................................   ",
"   ..........................................................   ",
"   ..........................................................   ",
"   .............@-:::::::::*+................................   ",
"   .............::::::::::::::::::::::::::::*O...............   ",
"   .............:::::::::::::::::::::::::::::-...............   ",
"   .............:::.......X%:::::::::::::::::$...............   ",
"   .............:::O.........................................   ",
"   .............-::-.........................................   ",
"   .............@:::.........................................   ",
"   ..............:::.........................................   ",
"   ..............:::.........................................   ",
"   ..............:::O........................................   ",
"   ..............-::-........................................   ",
"   ..............@:::........................................   ",
"   ...............:::........................................   ",
"   ...............:::........................................   ",
"   ...............:::........................................   ",
"   ...............:::O.......................................   ",
"   ...............-::-.......................................   ",
"   ...............@:::.......................................   ",
"   ................:::.......................................   ",
"   ................:::.......................................   ",
"   ................:::.......................................   ",
"   ................:::::::::::::::*O.........................   ",
"   ................::::::::::::::::-.........................   ",
"   ................::::::::::::::::$.........................   ",
"   ................-::-......................................   ",
"   ................@:::......................................   ",
"   .................:::......................................   ",
"   .................:::......................................   ",
"   .................:::......................................   ",
"   .................:::......................................   ",
"   ................+:::......................................   ",
"   ................=::&......................................   ",
"   ................:::X......................................   ",
"   ................:::.......................................   ",
"   ................:::.......................................   ",
"   ................:::.......................................   ",
"   ................:::.......................................   ",
"   ................:::O......................................   ",
"   ................-::-......................................   ",
"   ................@:::...o*:::::::::::*O....................   ",
"   .................-:::::::::::::::::::::::::*O.............   ",
"   .................@::::::::::::::::::::::::::-O............   ",
"   ..................@::::::$.........@:::::::::-............   ",
"   ..........................................@::$............   ",
"   ..........................................................   ",
"   ..........................................................   ",
"   ..........................................................   ",
"   ..........................................................   ",
"   ..........................................................   ",
"   ..........................................................   ",
"   ..........................................................   ",
"                                                                ",
"                                                                ",
"                                                                "
};
