/* XPM */
static char *_1b327c7a7c14af3c8538e18318ab685Yl6A8iA9fsCEUyhP[] = {
/* columns rows colors chars-per-pixel */
"64 64 206 2 ",
"   c #3F1D09",
".  c #4A2B16",
"X  c #4B2C19",
"o  c #442715",
"O  c #522E1E",
"+  c #4C321F",
"@  c #53331F",
"#  c #532C21",
"$  c #4F3422",
"%  c #533523",
"&  c #583525",
"*  c #553A25",
"=  c #593B26",
"-  c #573A28",
";  c #593D28",
":  c #573728",
">  c #553E30",
",  c #603F2A",
"<  c #5A4427",
"1  c #5E412A",
"2  c #5B4E2B",
"3  c #574627",
"4  c #5A5B2F",
"5  c #5B582E",
"6  c #5B4333",
"7  c #5C5D31",
"8  c #575E30",
"9  c #63442D",
"0  c #6B462A",
"q  c #6E4A2C",
"w  c #654023",
"e  c #714B2D",
"r  c #664730",
"t  c #664931",
"y  c #6B4C33",
"u  c #684731",
"i  c #724F34",
"p  c #635A34",
"a  c #735236",
"s  c #7A5536",
"d  c #765439",
"f  c #79563B",
"g  c #7B593C",
"h  c #5C6330",
"j  c #5D6B33",
"k  c #5A6D2F",
"l  c #636B35",
"z  c #686837",
"x  c #75663D",
"c  c #657738",
"v  c #696935",
"b  c #5F4F44",
"n  c #635248",
"m  c #7B5D44",
"M  c #765D47",
"N  c #685B54",
"B  c #614E45",
"V  c #7F6148",
"C  c #737742",
"Z  c #68615B",
"A  c #77695D",
"S  c #6B6547",
"D  c #6C6D6D",
"F  c #6F6762",
"G  c #766A62",
"H  c #6B6D70",
"J  c #6E7072",
"K  c #75716F",
"L  c #815D3E",
"P  c #8A5D3A",
"I  c #825937",
"U  c #8F613C",
"Y  c #91623D",
"T  c #845E41",
"R  c #866142",
"E  c #8B6444",
"W  c #8E6846",
"Q  c #916646",
"!  c #936B46",
"~  c #996D46",
"^  c #956C49",
"/  c #996E4B",
"(  c #977049",
")  c #9C714D",
"_  c #9E7351",
"`  c #A7754D",
"'  c #B47D4F",
"]  c #A27552",
"[  c #AC7D57",
"{  c #AE7D59",
"}  c #A47854",
"|  c #B67D52",
" . c #B87F54",
".. c #B07F5A",
"X. c #907963",
"o. c #867D76",
"O. c #887564",
"+. c #478835",
"@. c #518E3F",
"#. c #559A35",
"$. c #5B9E35",
"%. c #529636",
"&. c #66853C",
"*. c #5EA136",
"=. c #5BA62D",
"-. c #61A436",
";. c #66AC3B",
":. c #63A837",
">. c #6AB33E",
",. c #569541",
"<. c #5C9D42",
"1. c #579F43",
"2. c #788648",
"3. c #699942",
"4. c #79974B",
"5. c #5DA243",
"6. c #5FAB45",
"7. c #63A343",
"8. c #69A643",
"9. c #64A944",
"0. c #6BAB43",
"q. c #68AB48",
"w. c #74AC4A",
"e. c #73AA49",
"r. c #6DB245",
"t. c #6EB349",
"y. c #63B248",
"u. c #71B247",
"i. c #72B44A",
"p. c #7BB54E",
"a. c #73BA4A",
"s. c #78B547",
"d. c #7DB552",
"f. c #7CBD53",
"g. c #75BF51",
"h. c #7BA850",
"j. c #7DC155",
"k. c #7BC354",
"l. c #75C44E",
"z. c #AF8159",
"x. c #BB8155",
"c. c #B5835C",
"v. c #BA865E",
"b. c #BD895E",
"n. c #80AF4F",
"m. c #83B64F",
"M. c #83B251",
"N. c #83BC56",
"B. c #89BB56",
"V. c #8ABC59",
"C. c #86BF58",
"Z. c #86A456",
"A. c #87827E",
"S. c #BE8A61",
"D. c #B98760",
"F. c #C18A5E",
"G. c #C28C63",
"H. c #C59165",
"J. c #C99269",
"K. c #85C359",
"L. c #89C55B",
"P. c #90C65E",
"I. c #92C463",
"U. c #95CA65",
"Y. c #9BCD69",
"T. c #9CD46B",
"R. c #8FC462",
"E. c #A2DC70",
"W. c #868A8C",
"Q. c #888887",
"!. c #898E91",
"~. c #868A90",
"^. c #8A9194",
"/. c #BCB2AB",
"(. c #C3B7AD",
"). c #C6BBB2",
"_. c #C9BDB4",
"`. c #C7BEB8",
"'. c #C8BFB8",
"]. c #BFD5B3",
"[. c #BEC3B0",
"{. c #CEC4BD",
"}. c #CBC1B5",
"|. c #D0C2B7",
" X c #D1C4BA",
".X c #D3C8BE",
"XX c #DDCCBE",
"oX c #C2D6B5",
"OX c #C4D9B7",
"+X c #C6DBB9",
"@X c #CDE2BE",
"#X c #D4CAC1",
"$X c #DACFC3",
"%X c #CBDEC2",
"&X c #C7D9C0",
"*X c #DCD1C5",
"=X c #E5D7CA",
"-X c #E5D8CA",
";X c #E8DACC",
":X c #E1D6CE",
">X c #CEE1C2",
",X c #CEE1C1",
"<X c #D1E5C4",
"1X c #D8E9CA",
"2X c #E0E6DC",
"3X c #EFF0EB",
/* pixels */
"3X@X<X<X+X+X+X+X<X<X<X<XoXoXoXoX>X%X>X>XoX+X+X+X>X%X%X%XoXOXoXoX1X<X1X1X+X+X+X+X>X>X>X<XoXoXoXoX>X>X>X>X].oXoX].&X&X&X%XOXOX].2X",
"@X=.;.;.r.>.>.>.>.;.;.;.-.$.*.*.*.$.$.$.:.:.:.:.#.#.#.#.-.-.-.-.a.a.a.a.>.>.>.>.*.*.*.-.*.*.*.-.-.*.-.*.#.$.$.%.+.+.+.#.:.-.=.].",
"<X;.i.i.i.a.a.a.i.i.i.i.0.7.8.8.8.8.8.7.0.0.0.u.7.5.7.<.0.0.0.0.j.f.f.f.i.a.a.i.8.0.0.0.8.8.8.0.0.0.0.8.7.7.7.<.@.,.@.3.0.0.-.OX",
"<X;.i.i.i.a.a.a.i.r.t.i.0.7.7.7.7.7.7.7.r.i.u.i.7.7.5.<.0.0.0.0.j.j.j.j.i.i.i.i.7.8.8.8.8.8.8.8.0.0.0.8.7.7.7.<.@.@.@.3.0.0.-.oX",
"+Xr.i.i.i.i.i.i.i.d.d.d.w.e.e.e.w.w.w.p.&.c c c 7.7.7.7.0.0.0.0.i.i.i.i.K.N.N.N.d.d.d.d.0.0.0.0.8.8.8.8.8.8.8.7.<.<.<.7.0.0.-.<X",
"+X>.i.i.i.0.0.0.p.B.B.B.M.n.n.n.M.M.M.B.2 % & # 8.8.8.8.7.7.7.7.<.<.<.<.I.I.I.I.I.I.I.I.r.i.i.t.7.7.7.7.0.0.0.0.0.0.0.0.0.0.*.>X",
"+X>.i.i.i.0.0.0.p.B.B.B.M.n.M.d.M.M.M.B.2 = ; & 8.8.8.8.7.7.7.7.5.7.5.7.U.I.R.I.I.I.I.P.r.i.i.0.7.7.7.7.0.0.0.0.8.8.8.0.0.0.-.>X",
"+X>.i.i.i.r.r.r.p.B.B.B.M.M.M.M.M.M.M.B.2 * ; & 8.8.7.7.9.9.9.9.5.<.<.<.U.I.I.I.I.I.I.P.r.r.r.0.9.9.9.8.0.0.0.0.8.8.8.0.r.r.:.<X",
"1Xs.N.N.4.j l h 4.I.I.I.d.e.e.e.w.w.w.p.2 = ; % 8.0.0.t.j j j h t.0.0.0.L.K.K.K.I.I.I.I.N.N.C.h.h j j c 7.7.7.7.7.7.8.&.l l h [.",
"1Xm.V.P.C # & # 2.T.Y.Y.p.5.7.7.0.0.0.t.2 = ; % e.u.u.a.& & & O l.t.i.i.f.f.f.f.I.I.I.I.I.I.U.Z.# & & 4 1.,.,.<.7.7.9.j % & . /.",
"1Xm.V.P.2.% - % 2.T.Y.Y.p.7.7.7.0.0.0.t.2 = ; % e.u.r.a.* = ; @ g.t.t.i.j.f.f.f.I.I.I.I.I.I.U.Z.% ; = 8 5.,.,.<.7.7.9.j & ; X /.",
"1XK.P.U.2.# & O 4.E.T.E.f.9.9.9.0.0.8.r.2 = ; % w.a.a.k.* = ; @ l.i.i.i.K.K.k.K.I.I.I.U.U.U.T.Z.O * & 8 5.1.1.5.9.9.y.j & * . /.",
"}.h z v S N N N S x x C l h h 4 3.r.0.a.2 = ; & l l l l ; ; ; % t.9.9.q.z l l l d.p.p.h.z z z z y y y p 8 4 4 7 h h h p y y w {.",
"/.. & @ n J D J B % & & & & & # 3.t.r.a.2 : - - ; = = = ; ; ; & 9.5.5.7.# & & < t.0.0.3.O & & , g g g i & = = = & * & y g g e .X",
"/.X ; * n D D D n * ; ; ; ; ; % 3.t.r.a.2 : ; - ; ; ; ; ; ; ; & 9.5.5.7.& ; = 3 i.0.0.3.% ; * 9 g d g y * ; ; ; * ; * y g d q .X",
"/.. % @ n J D J b % * * % $ $ X 3.a.a.l.2 % % % ; * * * * * * % y.6.6.q.& ; = 3 a.t.t.8.O * & 1 g d g y % % % * * * * y g d q #X",
"$Xs R R V M M M m R R R ^ ] ] ] x 4 7 4 x R R R d i i i a a a a 4 4 4 7 = ; ; < 7 4 4 p Z Z Z N g g d g E R E a * ; * y g g e ).",
"*XY / ( R a d a R / ^ ^ z.b.b.H.i & * % E ( ^ ( g d g d d d d g & = = = ; ; ; ; = = & 6 J D H F s d d L ( / ) g * ; * y g d e ).",
"$XU ^ ^ R d d d R ^ ^ ! [ v.v.G.a * ; % E ^ ^ ^ g d d d d d d g * ; ; ; ; ; ; ; ; ; = 6 J D D A s d d L ~ ~ / g * ; * y g d e ).",
"*XU / ) E d g d E ^ ^ ! z.b.b.G.i % * $ E ^ ^ ^ L g g g g g g g * ; ; ; * * * * * * * 6 J J J F s g d L ( ~ ) g % * % 9 d a 0 ).",
"_.i g L i 1 1 ; g / ^ ^ / ) ) ] g a d i ! ^ ^ _ 9 1 1 1 1 1 1 1 ; ; ; ; d a d a d a d a 6 6 6 t g g d g g g L g a a a ! c.[ ` =X",
"_.e d d y * * * f / ^ ^ ^ ^ ^ / L d d d ! ^ ^ ) 1 * * * ; ; ; * ; ; ; ; g d d d d d g d * = * 9 g d d d d d d g d d d ) b.b.| -X",
"_.e d d y * ; * f / ^ ^ ^ ^ / / L d d d ! ^ ^ _ 1 * ; ; ; ; ; ; ; ; ; ; g d d d d d g d * ; * 9 g d d d d d d g d d d ) b.v.' -X",
").0 i d u * ; * g ) / / / / / ( I a a i ! / ^ _ ; * * * % $ $ $ % % % % g g d d a a a y + % + ; g d d d d d d d d d d ) F.b.x.;X",
"-X' c.v.R * ; * y g g g g g g s o.Q.Q.Q.V g g g d d d a c.c.c.c.c.c.c.c.d d f g D.c.c.v.c.c.c.} d d f T ^ ~ ^ E d f d E ) / Q |.",
"=X' v.F.E * ; * y d d d d d d a o.W.Q.!.V d d d g d d a S.S.b.S.v.v.b.S.a d d g G.v.v.b.v.b.b.[ a d d L ~ ^ / E d d d R / ^ U |.",
"-X' v.b.E * ; * y g d d d d d s o.Q.W.!.V d d d g d d a b.b.b.b.v.v.v.S.a d d g G.v.v.v.v.v.b.[ d g d L / ~ ~ E d d d E / ^ Y |.",
"-X' v.F.E $ * * 9 d a a a a a e o.!.W.^.M a d d f d d a G.G.G.G.b.b.b.G.d g g L G.S.S.S.S.S.S.[ d g d R ) / ( E d d d R / ^ Y |.",
"XX .v.G.) d d d ) b.v.v.v.v.v.S._ ^ ^ ^ ^ ^ ^ ^ g d d d d d d d / ~ ~ ( % ; - ; ) ^ ^ / ^ ^ / E d d d d d d d R / ^ ^ ^ ^ ^ U *X",
"XX .b.S.) d d d ) b.v.v.v.v.v.b.) ^ ^ ^ ^ ^ ^ / g d d d d d d d ( ~ ~ ( % - - ; ) ^ ^ ^ ^ ^ ^ E d d d d d d d R / / ^ ^ ^ ^ U $X",
"XX .b.S.) d d d ) b.v.v.v.v.v.b._ ^ ^ ^ ^ ^ ^ / g d d d d d d d ( ~ ~ ( % - - ; ) ^ ^ / ^ / / ! d d d d g d d R / ^ ^ ^ ^ ^ U $X",
"XXx.S.G.) d d d ] G.S.G.S.S.S.S.] / / / ^ ^ ^ ( g d d d g g g d ( ( ( ) + % % * ) ^ ^ / / / ) ! d d g g g d d R ) ) ) / / / Y *X",
"$XP ! ^ E d d d d a a i E ^ ^ ^ g d d a Q ^ ^ / g d d g * * * % f d d d _ ) ) ) ^ ^ ^ ! a d d d d d d d g g g y % * * 9 d d q ).",
"$XU ^ / E d d d d d d d E / ^ / L d d d ! ^ ^ / g d d g - ; - & f d d d / / ^ ^ ^ ^ ^ ! d d d d d d d d g g g y * ; * y g d e ).",
"$XU ^ / E d d d d d d d E / ^ / L d d d ! / ^ / g d d g ; ; ; & g d d d / / / / ^ ^ ^ ! d d d d d d d d d d g y * ; * y g d q ).",
"*XY ^ / E d d d d f g d E / / / T d d d ! ) / ) m g g g ; ; ; * g f f f ) / / / / / / ^ d g g f d d d d d d d y * ; ; y g d e ).",
"|.Y ^ ^ / / / ) a % * * y d d d d d d g = % % % * & & % g g g g f f d f d d d d d d d d d d d E G.S.S.S.S.S.G.] d g g E / / Y *X",
"|.Y ^ ^ / ^ ^ / d * ; * y d d d d d d g 1 - - - ; ; - * d d d d d d d f d d d d f d d f d d d E S.v.v.v.v.v.b.) d d d E / ^ U $X",
"|.Y ^ ^ / ^ ^ / a * ; * y d d d d d d d ; - - - ; - - % d d d d f f f f d d d d d d d d d d d E G.v.v.v.v.v.S.) a d d E / ^ Y $X",
"|.Y ^ ^ / ^ ^ / d = ; ; a g g g g g g g 1 ; ; ; 9 ; ; ; d g f f d d d d g g g g g g g g d d d E S.v.v.v.v.v.v._ f m m R ^ ^ P $X",
"*XU ^ ^ / ^ ^ / R d g d [ G.G.G.G.G.G.G.R g g d S.G.G.H.^ ^ ^ _ $ * % * J.S.S.S.G.G.G.v.a d d g ~ ! ! ! ! ! Q X.!.!.^.G d d q ).",
"$XU ^ ^ / ^ ^ / T d d a ] b.v.v.v.v.v.G.L d d a v.v.v.S.^ ! ^ ) % - - * G.v.v.v.v.v.v...a d d g ^ ^ ^ ^ ^ ^ ! X.W.Q.W.G s d e ).",
"$XU ^ ^ / ^ ^ / T d d a ] S.v.v.v.v.v.G.L d d a v.b.v.S.^ ! ^ ) % * * * G.v.v.v.v.v.b...a d d g / ^ ^ ^ ^ ^ ! X.~.W.!.O.s d e ).",
"*XY ^ / ^ ! ! ^ T d d d ] v.c.c.v.c.c.v.E T T g { c.c.c.^ ^ ^ ) > 6 6 6 S.c.c.c.v.v.v.{ d g g g W W E ! ^ ^ ~ X.Q.A.Q.A d d q ).",
"|.Y ^ / R a d d d d d d E ^ ^ ! ^ ! ^ Q v.G.S.G.d a a a ^ ^ ^ ~ J J J J ! ! ! ! ! ! ! E d g g i % * % y ( ^ ^ E a d s 9 * * . '.",
"|.Y ^ / E d d d d d d d E / ^ ^ ^ ^ ^ ! c.v.v.S.g d d d ^ ^ ^ ^ D D D D ~ ^ ^ ^ ^ ^ ^ ! d d d a * ; * y ( ^ ^ E d d g y * ; . _.",
"|.Y / / R d d d d d d d E / / / ^ ^ ^ ! c.b.v.G.g d d a ^ ^ ^ / H H H D ~ ^ ^ ^ ^ ^ ^ ! d d g i * * * y ) ^ ^ E d d d 9 * * . _.",
"}.P E ! L y a i d L g g E ! E E ^ ^ ^ ^ [ c.c.c.E R R R E E E E F F F F ! E E E E E E E d d d a 1 9 1 a ! W W E R E E d y y w {.",
".X0 d d t * * % f ) / / L d d d Q / ^ ^ ^ ! ! Q S.G.S.G.d d d d d s s d d d d d d d d d d d d g g g g d d d a ^ G.S.S.G.G.G.x.XX",
".Xq d d y * ; * f / / / L d d d ! / ^ ^ ^ ^ ^ ! v.v.v.G.d d d d d d d g d g d d d d d g d d d d d d g g g g d ^ S.v.v.v.v.v.| XX",
".Xq d d y * * % f / / / L d d d ! / / / / / / ^ v.b.b.G.d d d d d d d g g g g d d d d d g g g d d d g d d d a ^ G.v.v.v.v.v. .XX",
"#Xq d d a y y y g E E E L d d d L L T L E E E E [ [ [ c.L L L T d d d g y y y a ! E E E y y y a d g d L ! E E ) ..[ { { [ [ ` .X",
").q d d E ) / ) R d d d d d d g 1 * * % a d d a ! ! ! ! ^ ^ ^ ) d d d g % * * 1 H.S.G.{ $ * * 1 g d d ! G.S.G.[ Q ^ ^ ^ ^ ^ P $X",
").q d d E / ^ / R d d d d d d g 9 * ; * d d d d ^ ^ ^ ^ ^ ^ ^ / d d d g * ; * 9 G.v.b.[ % ; * 9 g d d E S.v.v.[ ! ^ ^ ^ ^ ^ U $X",
").q d d E / / / E g g g d d d d 1 * * * d g g d ^ ^ ^ ^ ^ / / ) d d d g * * * 1 H.b.G.{ $ * * 9 g d d ! G.b.S.[ ^ ^ ^ ^ ^ ^ U $X",
"_.s R R R E E E g y y y R ^ ^ / a r t t y y y y E E E E g g g g g g g g r t r y } _ ] ^ 9 t t y g g d R ] _ _ ) ^ ^ ^ ^ ^ ^ Y *X",
"*XY / / E d d d 9 * * $ / G.S.G.E d g g 1 * * * d d d g * * * % g d d g g g g d d d d d g g f g d d d d d d a T / ^ ^ ^ ^ ^ Y |.",
"$XU ^ / E d d g t * ; % / S.v.S.R d d g 1 ; ; * d d d g ; ; ; * g d d g d d d d d d d g d d d d d d d d d d d R / ^ ^ ^ ^ ^ Y |.",
"$XY / / E d g g 9 % * $ ^ S.v.S.R d d g ; * * * d d d d ; ; ; * g d d g d d d d d d d g g g g g d d d d d d a T / / / / / / Y  X",
"$Xs R E f r y r f E R R [ b.v.S.R d d g y y y 9 / ) ) ] ; ; ; * g d d d ) ) ) / d d d d t y y y g d d T ) ) ) ! T E E g d d q ).",
").q d d y % * $ Q G.G.S.b.v.v.S.E d d d g g g d v.G.G.J.= * ; * g d d d G.G.G.v.a d d d % * * 1 g d d Q G.G.G.] d d d r % & . `.",
"_.e d g y * - % E S.v.v.v.v.v.S.R d d d d d g a v.b.b.G.= * ; * g d d d G.b.b.c.a d g d * ; - 9 g d d Q G.b.S.) d d g u * ; X _.",
"(.w q e ; . X o P x.| | | | | x.I q e e q q q 0 | x. .F.. . . . e e q q x.|  .' 0 e e q . X . @ e e q P x.| x.~ 0 e e = . X   ).",
"2X(._.).{.`.'.`.}.$XXXXX-X=X=X;X}.).).).#X.X.X.XXXXXXX$X'.'.'.'.).).).).;X=X=X-X).)._.).`.'.`.{._._.).}.;X=X-X=X)._._.(.'.'.).3X"
};
