/* XPM */
static char *_1aee7db847247f09b3a9e9d287c9a71JIkVFrRB3yWqaJxY[] = {
/* columns rows colors chars-per-pixel */
"64 64 171 2 ",
"   c black",
".  c #01010B",
"X  c #06090B",
"o  c #120E0B",
"O  c #19120B",
"+  c #1B1A0F",
"@  c #080E13",
"#  c #141313",
"$  c #261913",
"%  c #3E2D0E",
"&  c #2A272A",
"*  c #27292B",
"=  c #2B2A2C",
"-  c #322E2D",
";  c #323527",
":  c #3D3A2C",
">  c #3D3D3F",
",  c #442D0E",
"<  c #4D310F",
"1  c #51340B",
"2  c #573B0E",
"3  c #4C3211",
"4  c #533414",
"5  c #52381C",
"6  c #5B3C17",
"7  c #613915",
"8  c #6A3B17",
"9  c #6D3D1A",
"0  c #713D1A",
"q  c #543C20",
"w  c #413335",
"e  c #5E431C",
"r  c #5C4215",
"t  c #6E4315",
"y  c #63451D",
"u  c #69461C",
"i  c #65481E",
"p  c #68481E",
"a  c #714616",
"s  c #74441B",
"d  c #744D1E",
"f  c #7B5A1C",
"g  c #5D4620",
"h  c #56452A",
"j  c #59452B",
"k  c #5E492B",
"l  c #634521",
"z  c #684720",
"x  c #654923",
"c  c #6D4B21",
"v  c #614729",
"b  c #624A2C",
"n  c #684D2C",
"m  c #734D23",
"M  c #724E28",
"N  c #7C4C29",
"B  c #6E5225",
"V  c #745325",
"C  c #7A5425",
"Z  c #775827",
"A  c #7A5A26",
"S  c #755529",
"D  c #7D552A",
"F  c #76592A",
"G  c #7A5B2A",
"H  c #674C30",
"J  c #6E5B3F",
"K  c #7D5A31",
"L  c #715A3F",
"P  c #424142",
"I  c #444648",
"U  c #6F5A40",
"Y  c #725B40",
"T  c #7F6244",
"R  c #7C6649",
"E  c #7B684F",
"W  c #6B6D6C",
"Q  c #736F6D",
"!  c #6E736E",
"~  c #6E6C71",
"^  c #737474",
"/  c #ED1C24",
"(  c #805727",
")  c #81572B",
"_  c #81592B",
"`  c #815B33",
"'  c #866225",
"]  c #86652E",
"[  c #89662E",
"{  c #8B692E",
"}  c #93742F",
"|  c #866531",
" . c #8A6732",
".. c #876932",
"X. c #8C6A34",
"o. c #866839",
"O. c #8D6C3A",
"+. c #916D36",
"@. c #926E39",
"#. c #8F7031",
"$. c #8E713C",
"%. c #927235",
"&. c #9A7B35",
"*. c #93713B",
"=. c #9A753C",
"-. c #977A3D",
";. c #9C7C3C",
":. c #A17D3E",
">. c #816344",
",. c #896446",
"<. c #876548",
"1. c #8A6548",
"2. c #816D4D",
"3. c #8E7342",
"4. c #937441",
"5. c #967943",
"6. c #9B7E42",
"7. c #94754C",
"8. c #826E53",
"9. c #8C7252",
"0. c #987E55",
"q. c #A17C40",
"w. c #9E813E",
"e. c #A1833F",
"r. c #9E8241",
"t. c #9E8656",
"y. c #A28443",
"u. c #A98143",
"i. c #A68945",
"p. c #A98B45",
"a. c #A48748",
"s. c #A48649",
"d. c #A88649",
"f. c #A5894C",
"g. c #A68A4D",
"h. c #A68A4D",
"j. c #A6894A",
"k. c #A98A4E",
"l. c #A98B4E",
"z. c #AA8C4A",
"x. c #AE9047",
"c. c #AE9549",
"v. c #AE954A",
"b. c #AD934B",
"n. c #AD9C4D",
"m. c #B1944C",
"M. c #B49A4F",
"N. c #A68D53",
"B. c #AA8F55",
"V. c #AB9155",
"C. c #AB935A",
"Z. c #AF995A",
"A. c #B29953",
"S. c #B39E53",
"D. c #B59D53",
"F. c #B59D53",
"G. c #B29B54",
"H. c #B59B54",
"J. c #B59E56",
"K. c #B49B54",
"L. c #B99E56",
"P. c #B59C59",
"I. c #B99E59",
"U. c #BDA65C",
"Y. c #C0A560",
"T. c #FEFDF5",
"R. c #FFFEFF",
"E. c white",
"W. c #FFFEFE",
"Q. c #FEFEFC",
"!. c #FFFFFF",
/* pixels */
"s.f.y.y.y.y.y.y.r.r.f.f.f.f.j.a.r.r.l.l.f.f.l.l.s.s.f.f.l.s._ 0.0._ s.l.f.f.s.s.l.l.f.f.l.l.r.r.a.j.f.f.f.f.r.r.y.y.y.y.y.y.f.s.",
"J.A.b.c.c.c.c.m.c.c.S.S.F.F.M.M.c.c.J.J.F.F.F.F.F.F.F.F.F.v.' t.t.' v.F.F.F.F.F.F.F.F.F.J.J.c.c.M.M.F.F.S.S.c.c.m.c.c.c.c.b.A.J.",
"H.A.+.*.+.@.G G *.+.%.+.X.O.X.X.X.X.O.O.O.X.+.+.O.O.+.*.*.O.7 >.>.7 O.*.*.+.O.O.+.+.X.O.O.O.X.X.X.X.O.X.+.%.+.*.G G @.+.*.+.A.H.",
"H.G.X.@.@.@.F A @.+.+.X..... . . ...........+.O.....X.X.@. .7 >.>.7  .@.X.X.....O.+........... .[ [ ....X.+.+.@.A F @.@.@.X.G.H.",
"H.G.X.@.V C V V C C C C A A @.X._ _ _ _ _ _ D G z c *.+.@. .7 >.>.7  .@.+.*.c z G D _ _ _ _ _ _ X.@.A A C C C C V V C V @.X.G.H.",
"J.P.@.*.V V M m m m m m C C X.X._ _ s s a a t t 1 2 *.@.*.+.7 >.>.7 +.*.@.*.2 1 t t a a s s _ _ X.X.C C m m m m m M V V *.@.P.J.",
"q.q.Z G 7 8.E.E.E.E.E.E.E.E.' *.y n E.E.E.E.E.    E._ X.G F 4 Y Y 4 F G X._ E.    E.E.E.E.E.n y *.' E.E.E.E.E.E.E.E.8.7 G Z q.q.",
"u.u.V F 6 R E.E.E.E.E.E.E.E.' *.r x E.E.E.E.  E.E.E.f  .S S 3 J J 3 S S  .f E.E.E.  E.E.E.E.x r *.' T.E.E.E.E.E.E.E.R 6 F V u.u.",
": w Z C m 9.E.E.E.E.E.E.E.E.%.w.C K E.E.E.  E.E.    &.y...[ 8 <.<.8 [ ..y.&.    E.E.  E.E.E.K C w.%.T.E.E.E.E.E.E.E.9.m C Z w : ",
"= * S V d 7.E.E.E.E.E.E.E.E.} y.C _ E.E.E.E.E.  /   &.y.X...0 1.1.0 ..X.y.&.  /   E.E.E.E.E._ C y.} E.E.E.E.E.E.E.E.7.d V S * = ",
"W W  . .y 2.E.E.E.E.E.E.E.E.} y.C K E.E.E.E.E.      } r.[ ] 7 >.>.7 ] [ r.}       E.E.E.E.E.K C y.} E.E.E.E.E.E.E.E.2.y  . .W W ",
"~ W  ...6 2.E.E.E.E.E.E.E.E.%.y.m K E.E.E.E.E.E.E.E.} ;.] ] 7 T T 7 ] ] ;.} E.E.E.E.E.E.E.E.K m y.%.E.E.E.E.E.E.E.E.2.6 .. .W ~ ",
"Z.C.X.O.X.O.7.4.B.N.B.V.C.V.w.y.] | 3.$.N.f.5.6.C.V.i.y.X. .9 ,.,.9  .X.y.i.V.C.6.5.f.N.$.3.| ] y.w.V.C.V.B.N.B.4.7.O.X.O.X.C.Z.",
"L.J.+.@.=.*.+.+.x.z.z.z.z.z.y.y...X.{ { p.y.%.=.m.z.b.l.@.+.0 ,.,.0 +.O.l.b.z.m.=.%.y.p.{ { X...y.y.z.z.z.z.z.x.+.+.*.=.@.+.J.L.",
"y.y.A G i i z y i i i i y i G G i x i i x x y y i p G G G F 4 Y Y 4 F G G G p i y y x x i i x i G G i i i i i i y z i i G A y.y.",
":.;.V F e r v y l l l l g l V S y y x x x z l l g g V V G S 3 J J 3 S G V V g g l l z x x x y y S V l g l l l l y v r e F V ;.:.",
"A.G.X.@.D m E.E.E.E.E.E.E.E.-.d.C ` E.E.E.E.E.E.E.E.-.s. . .7 T T 7  . .s.-.Q.E.E.E.E.E.E.E.` C d.-.E.E.E.E.E.E.E.E.m D @.X.A.A.",
"J.J.X.*._ m E.E.E.E.E.E.E.E.&.p.D ` E.E.E.E.E.  E.E.&.i.O.X.7 >.>.7 X.O.i.&.E.E.  E.E.E.E.E.` D p.&.E.E.E.E.E.E.E.E.m _ *.+.F.J.",
"b.c.]  .V u E.E.E.E.E.E.E.E.&.i.m D E.E.E.E.  /     %.r.[ [ 7 >.>.7 [ [ r.%.    /   E.E.E.E.D m i.&.E.E.E.E.E.E.E.E.u V  .] c.b.",
"b.b.]  .V u E.E.E.E.E.E.E.T.&.i.c S E.E.E.E.  / / / } ;.] ] 7 >.>.7 ] ] ;.} / / /   E.E.E.E.S c i.&.E.E.E.E.E.E.E.E.u V  .] b.b.",
"H.A...O.A d E.E.E.E.E.E.E.T.%.y.m S E.E.E.E.E.      &.y... .7 >.>.7  ...y.&.  /   E.E.E.E.E.S m y.%.E.E.E.E.E.E.E.E.d A O...A.H.",
"L.J.X.@.( m E.E.E.E.E.E.E.E.&.y.m S E.E.E.E.E.E.E.E.&.i.O.X.7 >.>.7 X.O.i.&.E./ E.E.E.E.E.E.S m y.&.E.E.E.E.E.E.E.E.m ( @.X.J.L.",
"y.:.S S G D 5.-.O.O.O.@.$.*.} *.Z A -.4.4.4.4.*.O.*.{ X.Z S 3 Y Y 3 S Z X.{ *.O.*.4.4.4.4.-.A Z *.} *.$.@.O.O.O.-.5.D G S S :.y.",
"q.:.V V F Z %.+.{ { { { { ..*.*.Z G %.+.#.%.%.O.[  .O...V B 3 U U 3 B V ..O. .[ O.%.%.#.+.%.G Z *.*...{ { { [ { +.%.Z F V V :.q.",
"H.H.X.@.@.X.z.j.j.z.e.e.j.i.w.r.| ..y.y.r.r.y.y.i.y.%.%.@.X.9 <.<.9 X.@.%.%.y.i.y.y.r.r.y.y...| r.w.i.j.e.e.z.j.j.z.X.@.@.X.H.H.",
"J.G.X.@.*.@.V.b.l.l.y.y.z.z.e.y.[ ..p.i.i.i.i.y.z.z.%.*.@.X.9 ,.,.9 X.@.*.%.z.z.y.i.i.i.i.p...[ y.e.z.z.y.y.z.z.b.V.@.*.@.X.G.J.",
"A.A.[ o.z i _ _ _ _ _ _ _ D ....D _ ( D D D V C V Z  . . .] 8 ,.,.8 ]  . . .Z V C V D D D ( _ D ....D _ _ _ _ _ _ _ i z O.[ A.A.",
"A.A.] ..i i G ) D D D D D D ] ] _ ) C A D D C C D A =.$.X.[ 8 ,.,.8 [ X.$.=.A D C C D D A C ) _ ] ] D D D D D D D G i i ..] A.A.",
"H.A.X.@.V V  . . . .@.@.@.@.y.y.A _ @.O.{ o.> P = = # $ N s 0 1.1.0 s N $ # = = P > o.{ O.@._ A y.y.@.@.@.@. . ... .V V @.X.A.H.",
"Y.U.+.*.C V  .......*.*.+.%.i.y.D _ *.@...o.P I * * X O N m s 1.1.s N N O X * * I P o...@.*._ D y.i.%.+.*.*....... .V C *.+.U.Y.",
"; - G D u z K G S S S S G G +.+.y x G G G F @ + q 6 *.o.3 5 4 Y Y 4 5 3 o.*.6 q + @ F G G G x y +.+.G G S S S S G K z u D G - ; ",
"= * G G z y G D V Z S V G G X.X.y z G F F S . o 4 1 %.[ , 3 4 J J 4 3 , [ %.1 3 o . S F F G z y ..X.G G V S Z V D G y z G G * = ",
"^ !  ...V V  ..... .@.@.@.O.z.j.m S *.@.@.@.*.*.@.*.z.a.O.X.7 >.>.7 X.O.a.z.*.@.*.*.@.@.@.*.S m j.z.O.@.@.@. ..... .V V .. .! ^ ",
"~ W  ...m m ..[ ] ] +.+.X.X.z.i.m V @.+.X.+.X.O.+.+.z.y.+.X.7 >.>.7 X.+.y.z.+.+.O.X.+.X.+.@.V m i.p.X.X.+.+.] ] [ ..m m .. .W ~ ",
"P.P.X.@.X.O.*.%.j.i.i.y.y.y.r.y.|  .y.y.y.y.i.y.y.y.i.y.X.X.7 >.>.7 X.X.y.i.y.y.y.i.y.y.y.y. .| y.r.y.y.y.i.i.j.%.*.O.X.@.X.P.P.",
"H.G.X.@.X.O.=.%.z.p.z.z.y.y.y.y.] { i.y.y.y.z.z.y.y.z.a.X.X.7 >.>.7 X.X.a.z.y.y.z.z.y.y.y.i.{ ] y.y.y.y.z.z.p.z.%.=.O.X.@.X.G.H.",
"F.A.X.@. ...{ ..[ ] ]  .X.X.X.X.@.@.+.+.+.+. . .V A O.O.@.X.7 >.>.7 X.@.O.O.A V  . .+.+.+.+.@.@.X.X.X.X. .| ] [ ..{ .. .@.X.A.F.",
"L.P.O.*. . . .X.X.X.X.X.@.@.O.O.*.*.*.*.*.*.@.@.G G *.*.*.X.7 >.>.7 X.*.*.*.G G @.@.*.*.*.*.*.*.O.O.@.@.X.X.X.X.X. . . .*.O.P.L.",
";.;.V S y y i i z z i x z y G G i i i i y y y y l y S Z G S 3 Y Y 3 S G Z S y l y y y y i i i i G G y z x i z z i i y y S V ;.;.",
";.=.V Z e y i y y y y y y y G F y i y y e e e y e r V V G S < J J < S G V V r e y e e e y y i y F G y y y y y y y i y e Z V =.;.",
"J.P.|  .S S O.......@.@.@.@.y.y.D _ o. . . .F G @.%.l.y.X. .9 1.1.9  .X.y.l.%.@.G F  . . .o._ D y.y.@.@.@.@.......O.S S  .| P.J.",
"J.G.] X.V S .. . . .@.@.+.+.y.y.D _ X.{  . .Z A @.+.z.y.X...9 ,.,.9 ..X.y.z.+.@.A Z  . .{ X._ D y.y.+.+.@.+. . . ...S V X.] G.J.",
"b.b.]  .i u O.O.O.O.O.X.+.O.e.y.C D +.O.O.X.O.O. ...y.w. .] 7 T T 7 ]  .w.y... .O.O.X.O.O.+.D C y.e.O.+.X.O.O.O.O.O.u i  .] b.b.",
"c.b.]  .y y @.+.X.X.X.X.+.O.y.y.C D +.O.+.+.X.O. ...y.;.] ] 7 >.>.7 ] ] ;.y... .O.X.+.+.O.+.D C y.y.O.+.X.X.X.X.+.@.y y  .] b.c.",
"J.G.O.@._ _ +.O.+.+.@.+.+.+.y.y.m V .. .C G *.+.+.+.l.y.X.X.9 ,.,.9 X.X.y.l.+.+.+.*.G C  ...V m y.y.+.+.@.@.@.+.X.+._ ) @.O.G.J.",
"I.J.+.*.) D +.X.+.+.@.+.+.+.y.y.m V ..| Z G *.@.@.%.z.f.O.X.9 1.1.9 X.O.j.z.%.+.+.*.G Z | ..V m y.y.+.+.+.@.@.@.X.+.D ) *.+.J.I.",
":.:.Z F S S +.+.O.O.+.+.+.X.%.%.D F =.*.+.+.O.+.+.O.X...S S 4 L L 4 S S { X.O.+.O.O.+.+.*.=.F D %.%.X.+.+.+.O.O.+.+.S S F Z :.:.",
";.;.Z G Z V +.+.O.+.+.O.+.O.*.*.V G =.*.X.+.+.+.O.O.O.X.C S 3 L J 3 S C X.O.O.O.+.+.+.O.*.=.G V *.*.X.+.X.+.+.O.+.+.V Z G C ;.;.",
"I.P.+.@.@.@.+.+.@.@.Z G  . .@.@.@.@.X.X.X.X.+.X.+.@.@.@.@.X.7 >.>.7 X.@.@.@.@.+.X.X.X.X.X.X.@.@.@.@. . .G Z @.@.+.+.@.@.@.+.P.I.",
"H.G.X.@.*.*.@.@.@.*.G G  ...@.@.@.@.+.+.+.+.@.@.@.@.@.+.@.X.7 >.>.7 X.@.+.@.@.@.$.@.+.+.+.+.@.@.@.@... .G G *.@.@.@.*.*.@.X.G.H.",
"c.b.]  .m V V V V V _ _ D A +.X.m V V V V V y i ) _ .. ...] 7 >.>.7 ] .. ..._ ) i y V V V V V m X.+.A D _ _ V V V V V m  .] b.c.",
"H.n.| ..V C V V V m ) ) D D O...V S V V V V y u _ _  .] ..| 7 >.>.7 | ..]  ._ _ u y V V V V S V X.+.D D ) ) m V V V C V ..| n.H.",
"= & *.+.D A @.+.*.+.+.+.{ ..y.y.m C X.X.+.+.O.@.+.%.z.a.X. .7 >.>.7  .X.a.z.%.+.@.O.+.+.X.X.C m y.y...{ +.@.+.*.+.@.A D +.*.& = ",
"- * *.@.D D +.+.@.@.@.@.....y.y.V Z X...@.O.+.+.O.O.z.y.X. .7 >.>.7  .X.y.z.O.O.+.+.O.@...X.Z V y.y.....@.@.@.@.+.+.D D @.*.* - ",
"^ ^ V S i i G G Z Z S S S Z *.%.l i G G F F F F S Z X...V V 3 L L 3 V V ..X.Z S F F F F G G i l %.*.Z S S S Z Z G G i i S V ^ ^ ",
"Q W V S z i G F S S S S S Z =.%.y x G G G G F F S S %...V B 3 U U 3 B V ..%.S S F F G G G G x y %.=.Z S S S S S F G i z S V W Q ",
"I.P.O.*._ _ *.@.@.+.....@.@.y.y.M C X. ... . ...O.O.=.*.%.X.9 1.1.9 X.%.*.=.O.O... . ... .X.C M y.y.@.@.....+.@.@.*._ _ *.O.P.I.",
"H.G.X.@.) ) @.O.O.O.| | O.O.y.e.m V ..] ] [ ] ]  ...%.%.O.X.9 ,.,.9 X.O.%.%... .] ] [ ] ] ..V m e.y.O.O.| | O.O.O.@.) ) @.X.G.H.",
"A.A.] ..G Z V.z.z.z.l.z.z.l.r.y.@.*.z.j.j.i.y.y.y.y.y.w.] | 8 ,.,.8 | ] w.y.y.y.y.y.i.j.j.z.*.@.y.w.l.z.z.l.z.z.z.V.Z G ..] A.A.",
"A.A.] ..Z Z B.z.p.z.z.z.j.l.r.y.X.O.z.j.j.i.y.y.y.y.y.6.] ] 8 ,.,.8 ] ] 6.y.y.y.y.y.i.j.j.z.O.X.y.r.z.j.z.z.z.z.z.B.Z Z ..] A.A.",
"J.G.+.@.....] ] ] ] +.X.O.X.] ] @.+.X.X.] ] X.X.X.X.X.+.@.X.9 ,.,.9 X.@.+.X.X.X.X.X.] ] X.X.+.@.] ] X.O.X.+.] ] ] ] ....@.+.G.J.",
"I.P.@.@.X.X.X.X. . .*.*.@.*. . .*.@.*.*. .X.+.@.*.*.*.*.*.@.9 1.1.9 @.*.*.*.*.*.@.+.X. .*.*.@.*. . .*.@.*.*. . .X.X.X.X.@.@.P.I.",
"Z Z < 3 3 4 4 4 3 3 3 3 4 4 3 3 4 3 3 3 4 4 < 3 % , 3 3 3 3 4 J J 4 3 3 3 3 , % 3 < 4 4 3 3 3 4 3 3 4 4 3 3 3 3 4 4 4 3 3 < Z Z ",
"O.O.v b b b n n v v v v n H v v b b b b b b v k h j b v v b v E E v b v v b j h k v b b b b n b v v H n v v v v n n b b b v O.O."
};
