/* XPM */
static char *_573b7716c694d64ab4c5d457e2d710c8GZU04Iey8YCFPWW[] = {
/* columns rows colors chars-per-pixel */
"64 64 16 1 ",
"  c black",
". c red",
"X c #FF0808",
"o c #FF4848",
"O c #FF6060",
"+ c #FF6868",
"@ c #FF7878",
"# c #FF8F8F",
"$ c #FF9797",
"% c #FFA7A7",
"& c #FFBFBF",
"* c #FFDFDF",
"= c #FFE7E7",
"- c #FFEFEF",
"; c #FFF7F7",
": c white",
/* pixels */
"                                                                ",
"                                                                ",
"                                                                ",
"   ..........................................................   ",
"   ..........................................................   ",
"   ..........................................................   ",
"   ..........................................................   ",
"   ..........................................................   ",
"   ..........................................................   ",
"   ........................o**O..............................   ",
"   ........................=::;..................o&O.........   ",
"   .......................o::::.................o-:;.........   ",
"   .......................=::::.................=:::.........   ",
"   .......................:::::................o:::$.........   ",
"   ......................o:::::................=:::..........   ",
"   ......................=:::::................:::$..........   ",
"   ......................::::::...............o:::...........   ",
"   ......................::::::...............=:::...........   ",
"   ......................::::::O..............:::$...........   ",
"   ......................:::;::;..............:::............   ",
"   .....................o:::@:::..............:::............   ",
"   .....................=:::.:::.............o:::............   ",
"   .....................:::$.:::.............=:::............   ",
"   .....................:::..:::.............:::$............   ",
"   ....................o:::..:::.............:::.............   ",
"   ....................=:::..:::O............:::.............   ",
"   ....................:::$..;::;............:::.............   ",
"   ....................:::...@:::............:::.............   ",
"   ...................o:::....:::............:::.............   ",
"   ...................=:::....:::O...........:::.............   ",
"   ...................:::$....;::;...........:::.............   ",
"   ..................o:::.....@:::...........:::.............   ",
"   ..................=:::......:::O..........:::.............   ",
"   .................o:::$......;::;.........+:::.............   ",
"   .................=:::.......@:::.........=::%.............   ",
"   .................:::$........:::O........:::X.............   ",
"   ................o:::.........;::;........:::..............   ",
"   ...............o-:::.........@:::........:::..............   ",
"   ...............=:::$..........:::O.......:::..............   ",
"   ..............o:::$...........;::;.......:::..............   ",
"   ..............=:::............@:::.......:::..............   ",
"   .............o:::$.............;::@.....o:::..............   ",
"   .............=:::..............#::;O....=:::..............   ",
"   ............o:::$..............X;::;....:::$..............   ",
"   ...........o-:::................@:::O...:::...............   ",
"   ...........=:::$.................;::;O..:::...............   ",
"   ..........o:::$..................@:::;Oo:::...............   ",
"   .........o-:::....................@:::;-:::...............   ",
"   ........o-:::$.....................@::::::$...............   ",
"   .......o-:::$.......................@:::::................   ",
"   .......*:::$.........................@::::................   ",
"   .......@::$...........................@::$................   ",
"   ..........................................................   ",
"   ..........................................................   ",
"   ..........................................................   ",
"   ..........................................................   ",
"   ..........................................................   ",
"   ..........................................................   ",
"   ..........................................................   ",
"   ..........................................................   ",
"   ..........................................................   ",
"                                                                ",
"                                                                ",
"                                                                "
};
