/* XPM */
static char *_c153ceb18504076d2730dd9c0ef073dOBtdUsyhYOr6Acsr[] = {
/* columns rows colors chars-per-pixel */
"64 64 16 1 ",
"  c black",
". c red",
"X c #FF0808",
"o c #FF4848",
"O c #FF6060",
"+ c #FF6868",
"@ c #FF7878",
"# c #FF8080",
"$ c #FF9797",
"% c #FF9F9F",
"& c #FFB7B7",
"* c #FFDFDF",
"= c #FFE7E7",
"- c #FFEFEF",
"; c #FFF7F7",
": c white",
/* pixels */
"                                                                ",
"                                                                ",
"                                                                ",
"   ..........................................................   ",
"   ..........................................................   ",
"   ..........................................................   ",
"   ..........................................................   ",
"   ..........................................................   ",
"   ..........................................................   ",
"   ...........................o*:::::::::*O..................   ",
"   .......................o*::::::::::::::;..................   ",
"   .....................o*::::::::::::::::$..................   ",
"   ....................o-:::::::$............................   ",
"   ...................o-::::$................................   ",
"   ..................o-:::$..................................   ",
"   .................o-:::$...................................   ",
"   ................o-:::$....................................   ",
"   ................=:::$.....................................   ",
"   ................:::$......................................   ",
"   ...............o:::.......................................   ",
"   ...............=:::.......................................   ",
"   ...............:::$.......................................   ",
"   ...............:::........................................   ",
"   ...............:::........................................   ",
"   ...............:::O.......................................   ",
"   ...............;::;O......................................   ",
"   ...............@::::*O....................................   ",
"   ................@:::::*O..................................   ",
"   .................@::::::*O................................   ",
"   ...................@:::::::*O.............................   ",
"   .....................@:::::::*O...........................   ",
"   .......................@::::::::*O........................   ",
"   ..........................@:::::::*+......................   ",
"   ............................@::::::::*O...................   ",
"   ...............................@::::::;O..................   ",
"   .................................X%::::;+.................   ",
"   ....................................@::::#................   ",
"   .....................................@::::@...............   ",
"   ......................................X&::;O..............   ",
"   .......................................X;::;..............   ",
"   ........................................@:::..............   ",
"   .........................................:::..............   ",
"   .........................................:::..............   ",
"   ........................................o:::..............   ",
"   .......................................o-:::..............   ",
"   ......................................o-:::$..............   ",
"   .....................................o-:::$...............   ",
"   ....................................o-:::$................   ",
"   ...................................o-:::$.................   ",
"   .................................o*::::$..................   ",
"   .............o*::*O............o*:::::$...................   ",
"   .............*:::::::::::::::::::::::$....................   ",
"   .............@:::::::::::::::::::::$......................   ",
"   ................@::::::::::::::::$........................   ",
"   ..........................................................   ",
"   ..........................................................   ",
"   ..........................................................   ",
"   ..........................................................   ",
"   ..........................................................   ",
"   ..........................................................   ",
"   ..........................................................   ",
"                                                                ",
"                                                                ",
"                                                                "
};
