/* XPM */
static char *daf964d2efe14dd8ac431a4e9a73cb42npIdZtWdXfx3xC7Z[] = {
/* columns rows colors chars-per-pixel */
"64 64 146 2 ",
"   c #000A0F",
".  c #030C14",
"X  c #030F19",
"o  c #041016",
"O  c #06121C",
"+  c #08131D",
"@  c #061622",
"#  c #091622",
"$  c #061925",
"%  c #0A1925",
"&  c #061B2B",
"*  c #0B1C2B",
"=  c #061E32",
"-  c #0A1F30",
";  c #0D202E",
":  c #11212E",
">  c #0C2334",
",  c #0D263A",
"<  c #0E293D",
"1  c #132534",
"2  c #142837",
"3  c #122739",
"4  c #132A3C",
"5  c #1A2C3C",
"6  c #19303F",
"7  c #0F2B41",
"8  c #122D42",
"9  c #1A2E41",
"0  c #163146",
"q  c #1B3245",
"w  c #163349",
"e  c #1C364B",
"r  c #1E394E",
"t  c #1C3652",
"y  c #1E3A51",
"u  c #1F3E58",
"i  c #20364B",
"p  c #203A4F",
"a  c #223C52",
"s  c #283D51",
"d  c #233F58",
"f  c #1F4156",
"g  c #1F4058",
"h  c #254156",
"j  c #284155",
"k  c #25425B",
"l  c #29455D",
"z  c #2D495F",
"x  c #30495E",
"c  c #274660",
"v  c #2A4661",
"b  c #274961",
"n  c #2A4A63",
"m  c #2C4963",
"M  c #2D4A63",
"N  c #2C4A64",
"B  c #2B4C65",
"V  c #2E4E64",
"C  c #2D4A63",
"Z  c #2C4D68",
"A  c #2E4D68",
"S  c #2F4F6B",
"D  c #2E4E69",
"F  c #314D66",
"G  c #304F69",
"H  c #304F6A",
"J  c #324F6B",
"K  c #314F69",
"L  c #2F5069",
"P  c #315067",
"I  c #32526C",
"U  c #33536D",
"Y  c #35536F",
"T  c #33546F",
"R  c #33556F",
"E  c #34556F",
"W  c #35566E",
"Q  c #33526D",
"!  c #335672",
"~  c #365570",
"^  c #355671",
"/  c #355673",
"(  c #355672",
")  c #385774",
"_  c #395773",
"`  c #345873",
"'  c #365974",
"]  c #395872",
"[  c #385B76",
"{  c #395A75",
"}  c #375B78",
"|  c #3B5C79",
" . c #3B5C7A",
".. c #3B5D7A",
"X. c #3D5D7A",
"o. c #3C5F7B",
"O. c #3F5E7A",
"+. c #3B5F7C",
"@. c #3D5F7C",
"#. c #3E5F7E",
"$. c #3B5D7B",
"%. c #3D607B",
"&. c #3B617E",
"*. c #3E607D",
"=. c #3D627D",
"-. c #3E607E",
";. c #3F607E",
":. c #3E617E",
">. c #415F7D",
",. c #41627E",
"<. c #3E6380",
"1. c #3D6182",
"2. c #3E6381",
"3. c #416382",
"4. c #406481",
"5. c #416581",
"6. c #426580",
"7. c #416583",
"8. c #436582",
"9. c #416683",
"0. c #436683",
"q. c #406584",
"w. c #416584",
"e. c #416685",
"r. c #436785",
"t. c #416586",
"y. c #416686",
"u. c #436786",
"i. c #446787",
"p. c #426583",
"a. c #436885",
"s. c #426887",
"d. c #436986",
"f. c #446885",
"g. c #456987",
"h. c #466A86",
"j. c #436886",
"k. c #456688",
"l. c #436988",
"z. c #456888",
"x. c #466989",
"c. c #446A89",
"v. c #466A89",
"b. c #44698A",
"n. c #456A89",
"m. c #496B8A",
/* pixels */
"% > 7 > O > , > < , > * + < < 7 7 , > > , 8 < t 2 > e a p e X.0.. > 0 a p p p p p r G ~ q * 8 r p p p r l 0.9 # , , 8 & + > 8 7 ",
"O O % O + O + O @ @ O O O @ @ @ % O X . @ $ % @ O + , a p r c s.O < r p p p p p p r e E r X < e p p p p q <.5 + + + @ O O O # @ ",
"0.i.v.1 &.v.g.l l g.l.g.s.y.B ..v.v.{ Z v.v.R ` 5 + , 0 a e +.y.O 7 a p p p p p p p e m ] O < e p p p r a 3.5 ! v.v.G d 0.s.l.Y ",
"I a y.* , a G ....a a a k ....X.y a #.<.M k *.y.2 * < r r C #.y.O 7 0 p r p r p p r r X.I % < < a p r a %.) ; , a a ~ *.k a k *.",
"r r s.% & w r a a r r r r r r e r r h C e e k 0.2 < 0 p r k *.y.  % < r p p p p p r a 0.R . ; , a p r a 0.b * @ 0 a y V r r r l ",
"e ~ y.* , , 0 r p a a r r r a p r r 8 p a r w y.2 < e p r r l v.. > w p p p p p p p e Z E $ 8 e p p r r Z y.5 < < p 8 r a r r r ",
"* t ! : # 4 < 7 0 0 0 8 * 8 0 0 < * < 8 0 < 7 S 5 > 7 8 < 0 0 *.+ 7 e p p p p p p p r M E $ 8 a p p p r a *.5 * 7 < < 8 0 8 * 8 ",
"O . & O . . * ; O * O + + * > > * O & > > O * > $ + ; > O . & & % 7 0 a p p p p r r r I E @ 8 r p p p p e *.q . $ > + @ * O . * ",
"1 I z C M P 1 X + O O + + + + O + + + O O + + O + + + + 3 F C F O , < r p p p p a p a 0.R . , e a p p p e <.5 C M s 3 p C C k 2 ",
"@ k { *.L ~ v.p O 1 e 8 * @ # % O % % + O O + + + + + + < r d y.  > 8 a a e 8 e e 4 a ..~ . < 0 e r r e F +.% w I | I i.! ..0.I ",
"% < y ' k r I 0.1 ..l r r q e r 2 > 4 , q q & + O + + + % 7 4 ..O 7 8 8 8 8 * , < < 4 8 F @ 7 < < 8 4 < 8 f 5 , 0 r { h r a l <.",
"# , a e r r q *.c { a r a e < r q 8 d a a a a d 5 O + + . O @ 9 . & O   . $ O O * . . & @ . @ . X &   & O & @ % < a e r p e Z I ",
"+ > 0 a p p e *.l Y r r p p r r a r 8 a p p r r a 2 + . Z | ) R ` E ' { q I { a r l ' ` E M { ~ ~ ~ V q a * O # & 8 a p p e #.c ",
"& 7 0 a p p e <.q i.h r p r a p a 1 ; 3 0 p p p a q + + < C I ,.*.3.~ { 8 G y.0.0.<.*.' m M L y.*.#.<.' s.*.: + * * a p p r k y.",
"% 7 8 p p r C 0.1 ~ e r p p r a 9 q e q 2 4 e a a r % O < , e V Z r r z 1 y r r r k ~ r r r r e k *...a e <.6 > O d e a r r r I ",
"+ % < r p p e 0.1 >.a r r r r r r r a e a p p 8 e d % + * < p r r r r e 0 r r r r r e r r r r r r k h r e +.l , & i O 9 a r r I ",
"+ % 4 e a e e y.5 0.] l r e a a l l e e d y a 8 p 8 > O % < p p p r r Y ; 8 p p p r r r p p p p r r r r G *.1 e * O # . e r k <.",
"% 8 8 8 0 < < l m { y r h { | } ~ { ~ ~ ..` { ~ ' ' I o # < a p p r r I 4 e w p r p r r p p p p p r r r V ' % e < , > O r e ~ #.",
"O . . @ % o % & * p s I V h q * 1 q G F a y y V d i p 2 * < e p p r k 3 a a 2 p p r a a r p p e p p p p e #.: e < < 7 @ q Y 3.a ",
"1 } I E ~ I E 1 { l q e _ ~ I { * E { Y ~ ~ Y | I L I q , < 8 p p p e r p p a p p r r V w r a 8 p p p p r m a < < < < & q y { { ",
"@ f r m V e ~ # u ] 0.` Z m 3.' O u L r l r e V a k { s $ < < r p p a a a p p p p p p r r 8 0 r a p p p r h k 8 < < < 8 % a d *.",
"& < 8 r e h v.. > r a Z e e l m O , 8 a p r e p p e E p > < r a a r 0 < 0 r e a a a r 8 w ] * y 8 a p e e ~ u w < < < 7 + 1 l <.",
"@ < < 0 8 0 ..O @ 0 r r p r l m . > 8 w 0 < , 0 0 0 e j % 8 4 w 0 4 7 ; 7 < < 0 0 0 < < 8 i > < < 0 8 < < e p e 8 < < < * . 1 ` ",
". X > X @ O = O > e a p r r C v.. & % . $ - - * . . & $ o > & . @ * . . . ; * $ . * * # > % * - % . O & @ $ . 5 2 e > > q < . . ",
"F q 2 l F C F O > a p p p e *.y.* P p 2 2 z C ; p Z z 3 l z C e 1 F C M a 2 s C C C l 3 2 a C C m z 1 V C k 3 z l I m p e ! C e ",
"~ *.I 3.I k v.@ 8 8 r p p r E c O l g.*.~ I ..C & I E 0.*.I ~ v.X c E R 0.2.0.*.a a ,.~ M y.#.G <.*.O m I *.3.%.a h *.0.,.I ~ y.",
"k *.I a e h y.@ < < e p p r k 0.O , h ' *.e G C & 8 r I k e a s.O < 8 r L ' a a r r a *.{ a s w <.c X > 0 l <.y r r a G k e r d ",
"r e e r p a v.. > 8 < 8 w < e 0.. > 8 r e a { a . - r r r r a v.. & 8 r r e r r p p r e e r e E <.a . & w r e r p p r r r r r r ",
"p p p p e ..Z X O % > > O X > , O # 0 a r k g.4 o 8 p p p r | 3.. > < r p a p r p p p p p r r r *.| . , e p p a p r r p p p p p ",
"a a r 0 p F ..O a k j j j l 1 p . > 0 a r p X.s . 8 r a 8 I | a . > r p p 0 a p p p p p p p p w 0.*.@ 8 a p a 0 r a a p a a a p ",
"8 r , > 8 y y.+ e V l y e Z _ y.+ 8 a p r r e C O 0 l 4 e C 3.G . > 0 a p r e a a w e p p p p r l k + 8 r w < > 7 < 7 r < < 8 r ",
"> % # X ; < t O > 0 0 8 < 0 < ..X , a p p e c z - d i q r r m m.. , q a a a a < r 0 r p p p p e { ~ . % < < * O & > $ 4 , # @ > ",
"2 * 1 5 5 O . + + O O O O O O . + > a p r C y.a . q 2 w p r C #.. + < q , e a ' ; r p a a r e 0 ' *.# 5 2 5 : * * : 5 2 2 5 5 2 ",
"3.k %.<.v.: r * O O O O ; O + + + > e a r c 0.h . > e e 8 r ,.m . + 8 < 4 4 8 > + * 8 8 8 4 < , < E & *.0.y.+.| k #.0.3.3.2.3.<.",
"R 0.k r i.1 c.p e 5 1 w a a q O + , < w 8 < g K . , 8 e 7 8 e y.. + # > % + O + + % > ; > % O O > O * < e V G ~ y.G y e e e a ..",
"r a e a v.* { y p a y a p a 8 % O O & + O + & > . O > > + & > 8 O # @ + + + + + + + O O O + + + + + + > e r e r a e r p p p r a ",
"p r r M { # k ~ r e 8 e p a $ + 1 h p p s 1 q p s q > p p p 1 ; j t 0 * * 1 X * + + 3 2 2 O O O + + + O e a p p r r p p p p p r ",
"e p e +.m 4 R G r r r e r a 5 + O l ..{ y.*.<.{ { <.&.%.{ 0.#.m c { e p r a r e w r r a a 0 8 p > + + # 0 a a e p r r a a p p p ",
"< 8 e M X.w i.w e h E I V e 8 % + X a r m G E e w E F a r c %.y.8 ~ e r r r r e r p 0 , r p p p q O O < < 0 w < 8 8 < 0 0 a a w ",
"# > > , a r v.~ ~ ) h s.{ 0.s.j O O > a r r r p p r r r r e k 3.l s.~ k l l c 0.y.b M k a k C l ! a $ 8 > > # # > > > < < 7 > > ",
"O O . @ X # 2 # > 4 4 1 < t 3 q O O 1 a r r r p p p p p p r h y.1 5 q l l h 1 1 2 2 2 ; % 1 2 p c q X @ O O O O . X O @ # @ . . ",
"#.y ` i.k.#.k 0.y.* 0.y.l V 8.m.. O 1 a r p p p p p p p p r h i.% 0.3.*.Y e k C q m.0.y.m a F <.,.0.s.V a ; 0.' <.{ y ` s.y.y.y.",
"#...I a a | <.c ,.O 0 G ..{ m I @ # 1 a p p p p p p p p p r ] y.O 0 F ..#.~ *.C & y k V *.X.*.m a d ..#.M @ e e a *.{ ,.k d a R ",
"a G e r r a d l l @ < e e e Y l y ; @ 3 a a a p p p p p p e { a @ < e r k m { C @ < e e m G e r r r q { v.* < a r a F e p r r r ",
"8 e r a r e r m F @ e a p e m y.@ 8 > + @ q q a p r p p p r #.M O < 8 p r e I M . , r p r r r r p p r a v.# * 8 a p r p 8 r a a ",
"> 7 8 0 8 < 8 w *.O < w y 7 0 *.@ 8 < > , & . 5 a p r p p r V v.  > 8 r p e I F . % r p p p p p p p r r ..% O 7 0 0 0 8 4 8 0 w ",
"+ + > > * O * > % O + & > * # , * w < < , , & O q a r p p r a b.. - < r r d 0.4 + < w p p p p p p p p e I # + + O % > > $ , ; O ",
"+ + + + + + + + + + + + + + + O : d < < , O X q a r p p p e Y v.. * < e r k y.a > 7 < a p p p p p p r r 2.+ . + + + + O + O + + ",
"% + O + % & & & * O + O % * + O : r < < 7 * 5 a r p p p r h X.k O , e a p e I m * 8 r p p p p p p r a *.m 6 x @ + + + O * & O + ",
"w , 1 + p r r e < > # : e 7 > O : 8 < < < * 2 a a p p p p a >.c @ 8 a p r e I C * 0 a r p p p p p r a X.M h i.e q 1 O q p r > # ",
"a a a a r p a a a a a a a d + O : e , < 4 > @ e 2 O & @ + 2 4 ,.O 7 e p r k g.4 O < r a r p p p p p r r 0.a { ..a r w a p a r 0 ",
"r a r p p a 0 8 r r r p p a + + * i r 8 , # * @ * > > > > > X + % < 0 a r r ~ q O < 8 a r p r p p p r d 0.a y *.l r a r r a p a ",
"a 2 a p a q a r 8 0 0 p p a + + + & < , + O @ + O j p p 1 1 2 s . % w a p e I Z . % < a p a 4 a p p r ] m 1 I ` e a a e 8 8 p p ",
"r q 1 a 0 e p r p a p p p a # O 9 l < e 4 r e + O k ..*.*.V X.v.. # 7 r r l <.C X < r 8 r 5 r p p p r E m * y.r r 1 q a p r 0 p ",
"a I 0 8 8 e e a d r r e r p q . 5 ! r r 8 r a 4 O < 4 a *.I X.y.X < 8 a a C { z & q a l 1 e 0 r a p p a #.; i.w 4 e I w r r r e ",
",.` ,.k 0.,.*.*.*.k l 0.m l d # 5 q.k r a k e e @ $ < a r e ` #.O 7 < < q > k V & 7 < c 1 0 > < r e , e %.h ..0.k *...,.l h X.*.",
"l y I d l l l k k G 0.I k ~ *.4 * { 2.~ | #.I *.1 X , a r r k m . + - < - O @ : . @ 4 s > * X > < , @ > 8 i d F k a k *.*.<.~ h ",
"* % m c p . 5 l e 2 1 c c y r C k 1 % & 2 2 2 2 + # 3 a p r k ~ # q * 5 1 ; * 5 q q ; * * 1 q 1 * * * 5 5 2 X q m z y > : e l l ",
"y I *.0.e % +.#.~ l 0.#.*.| ' *.#.0.B ~ 0.<.*.2.1 * < w p e { v.+ | ' %.*.I Z y.*.*...V w ; 3...I y { #.*.+.* k *.*.{ ' 3.<.,.#.",
"3.*.a ' i & 0 a X...C q e { 2.~ w l F G a q q 2.2 7 < 0 p k { G X > e r Z ,.~ l q q ] y.e . < e ~ i.k e q ` * * 4 d Z 0.<.~ V a ",
"c k q | q > < r a a e p r p a r p r r r r p e 2.2 7 , 0 r M ,.C . > < r r a r r p r a <.I . 8 p r a r r r 3.6 O > a r a a r e r ",
"r e h *.e o > a r r p p p r r r r p p p p r l y.2 > < r p e C v.. O 0 r p r r r r r y y.~ . * e p r r p | B 2 + , a p r r r p p ",
"p r L 3.e . > r p r r p p p p p p p p p p e I 2.1 $ r a p r m 3.. > 0 a p p p p p r e M _ O * < a p r a *.{ : , < 0 a p p p p p ",
"r r *.<.e O , 8 a p p p p p p p p p p p r a ..k % & 8 a p e | a @ 7 0 a p p p p p r y ..h O 7 0 a p p r a <.q * < 8 a p p p p p "
};
