/* XPM */
static char *_ce8214d6e91410bc25af7779568ba80UqW9oa1KzqUedquD[] = {
/* columns rows colors chars-per-pixel */
"64 64 16 1 ",
"  c black",
". c red",
"X c #FF0808",
"o c #FF4848",
"O c #FF6060",
"+ c #FF6868",
"@ c #FF7878",
"# c #FF8F8F",
"$ c #FF9797",
"% c #FFA7A7",
"& c #FFAFAF",
"* c #FFBFBF",
"= c #FFDFDF",
"- c #FFE7E7",
"; c #FFF7F7",
": c white",
/* pixels */
"                                                                ",
"                                                                ",
"                                                                ",
"   ..........................................................   ",
"   ..........................................................   ",
"   ..........................................................   ",
"   ..........................................................   ",
"   ..........................................................   ",
"   ..........................................................   ",
"   ..........................................................   ",
"   ..........................................................   ",
"   ..........................................................   ",
"   ..........................................................   ",
"   ..........................................................   ",
"   ..........................................o*O.............   ",
"   ...........o==O...........................-:;.............   ",
"   ...........=::;...........................:::.............   ",
"   ...........@:::...........................:::.............   ",
"   ............:::..........................+:::.............   ",
"   ............:::..........................-::%.............   ",
"   ............:::O.........................:::X.............   ",
"   ............;::;.........................:::..............   ",
"   ............@:::.........................:::..............   ",
"   .............:::.........................:::..............   ",
"   .............;::@........................:::..............   ",
"   .............#::;........................:::..............   ",
"   .............X:::O...........o==O.......o:::..............   ",
"   ..............;::;...........-::;.......-:::..............   ",
"   ..............@:::..........o::::.......:::$..............   ",
"   ...............:::O.........-::::.......:::...............   ",
"   ...............;::;.........:::::@......:::...............   ",
"   ...............@:::........+:::::;......:::...............   ",
"   ................:::........-::&:::O.....:::...............   ",
"   ................;::@......o:::X;::;.....:::...............   ",
"   ................#::;......-:::.@:::....o:::...............   ",
"   ................X:::.....o:::$..:::....-:::...............   ",
"   .................;::@....-:::...:::O...:::$...............   ",
"   .................#::;...o:::$...;::;...:::................   ",
"   .................X:::...-:::....@:::...:::................   ",
"   ..................:::O..:::$.....:::...:::................   ",
"   ..................;::;.+:::......;::@..:::................   ",
"   ..................@:::.-::%......#::;.o:::................   ",
"   ...................;::*:::X......X:::O-:::................   ",
"   ...................#:::::%........;::;:::$................   ",
"   ...................X:::::X........@::::::.................   ",
"   ....................;::::..........;:::::.................   ",
"   ....................@::::..........@:::::.................   ",
"   .....................;:::...........;::::.................   ",
"   .....................@:::...........@::::.................   ",
"   ......................@:$............;:::.................   ",
"   .....................................@::$.................   ",
"   ..........................................................   ",
"   ..........................................................   ",
"   ..........................................................   ",
"   ..........................................................   ",
"   ..........................................................   ",
"   ..........................................................   ",
"   ..........................................................   ",
"   ..........................................................   ",
"   ..........................................................   ",
"   ..........................................................   ",
"                                                                ",
"                                                                ",
"                                                                "
};
